<svg width="264" height="267" viewBox="0 0 264 267" fill="none" xmlns="http://www.w3.org/2000/svg">
<g filter="url(#filter0_d_5809_34103)">
<rect x="31.229" y="21.8643" width="201.827" height="284" rx="21.6244" fill="white"/>
</g>
<path d="M55.6966 52.3677C55.4462 52.3677 55.2289 52.2786 55.0449 52.1002C54.8607 51.922 54.7688 51.7038 54.7688 51.4457C54.7688 51.1877 54.8608 50.9659 55.0449 50.7799C55.2288 50.5941 55.4461 50.5011 55.6966 50.5011C55.9617 50.5011 56.1843 50.5941 56.3648 50.7799C56.5452 50.9659 56.6354 51.1879 56.6354 51.4457C56.6354 51.7036 56.5452 51.922 56.3648 52.1002C56.1843 52.2786 55.9617 52.3677 55.6966 52.3677Z" fill="#236CFF"/>
<path d="M56.1587 53.7924C55.6642 53.7924 55.2928 53.7924 55.0001 53.7685C54.7073 53.7446 54.4938 53.697 54.3103 53.6035C53.9839 53.4372 53.7184 53.1718 53.5521 52.8454C53.4586 52.6618 53.411 52.4483 53.3871 52.1556C53.3632 51.8629 53.3632 51.4914 53.3632 50.9969V50.376H52.1906V50.9969C52.1906 51.4914 52.1906 51.8629 52.1667 52.1556C52.1428 52.4483 52.0952 52.6618 52.0017 52.8454C51.8354 53.1718 51.57 53.4372 51.2436 53.6035C51.06 53.697 50.8465 53.7446 50.5537 53.7685C50.2611 53.7924 49.8896 53.7924 49.3951 53.7924H48.7742V54.965H49.3975C49.892 54.965 50.2611 54.965 50.5537 54.9889C50.8465 55.0128 51.06 55.0604 51.2436 55.1539C51.57 55.3202 51.8354 55.5857 52.0017 55.9121C52.0952 56.0957 52.1428 56.3091 52.1667 56.6019C52.1906 56.8946 52.1906 57.266 52.1906 57.7605V58.3815H53.3632V57.7581C53.3632 57.2636 53.3632 56.8946 53.3871 56.6019C53.411 56.3091 53.4586 56.0957 53.5521 55.9121C53.7184 55.5857 53.9839 55.3202 54.3103 55.1539C54.4938 55.0604 54.7073 55.0128 55.0001 54.9889C55.2928 54.965 55.6642 54.965 56.1587 54.965H56.7797V53.7924H56.1587Z" fill="#236CFF"/>
<path d="M62.8647 57.9756V51.282H63.8687V57.9756H62.8647ZM70.5307 53.9499H67.27V53.1179H70.5307V53.9499ZM69.7179 52.0374C69.5777 52.0374 69.4757 52.0725 69.4119 52.1426C69.3546 52.2127 69.3259 52.3306 69.3259 52.4964V57.9756H68.3696V52.4103C68.3696 52.1617 68.4047 51.9482 68.4748 51.7697C68.5513 51.5848 68.6724 51.4445 68.8382 51.3489C69.0103 51.2533 69.2366 51.2055 69.5171 51.2055H70.5212V52.0374H69.7179ZM73.3109 58.0712C72.8838 58.0712 72.5013 57.9692 72.1634 57.7652C71.8319 57.5548 71.5674 57.2616 71.3697 56.8855C71.1785 56.503 71.0829 56.0568 71.0829 55.5468C71.0829 55.0431 71.1785 54.6033 71.3697 54.2272C71.5674 53.8447 71.8319 53.5482 72.1634 53.3379C72.5013 53.1275 72.8838 53.0223 73.3109 53.0223C73.738 53.0223 74.1205 53.1275 74.4584 53.3379C74.7962 53.5482 75.064 53.8447 75.2616 54.2272C75.4592 54.6033 75.558 55.0463 75.558 55.5563C75.558 56.0599 75.4592 56.503 75.2616 56.8855C75.064 57.2616 74.7962 57.5548 74.4584 57.7652C74.1205 57.9692 73.738 58.0712 73.3109 58.0712ZM73.3109 57.2489C73.5531 57.2489 73.7731 57.1851 73.9707 57.0576C74.1683 56.9237 74.3245 56.7293 74.4392 56.4743C74.554 56.2193 74.6114 55.9101 74.6114 55.5468C74.6114 55.1834 74.554 54.8774 74.4392 54.6288C74.3245 54.3738 74.1683 54.1825 73.9707 54.055C73.7731 53.9212 73.5531 53.8542 73.3109 53.8542C73.075 53.8542 72.8583 53.9212 72.6606 54.055C72.4694 54.1825 72.3132 54.3738 72.1921 54.6288C72.0773 54.8774 72.02 55.1834 72.02 55.5468C72.02 55.9101 72.0773 56.2193 72.1921 56.4743C72.3132 56.7293 72.4694 56.9237 72.6606 57.0576C72.8583 57.1851 73.075 57.2489 73.3109 57.2489ZM80.6235 53.1179V57.9756H79.6768V53.1179H80.6235ZM76.6456 56.3691V53.1179H77.6018V56.1779C77.6018 56.5412 77.6911 56.8185 77.8696 57.0098C78.0481 57.1947 78.2744 57.2871 78.5485 57.2871C78.7525 57.2871 78.9373 57.2329 79.1031 57.1245C79.2752 57.0162 79.4123 56.844 79.5143 56.6082C79.6226 56.3723 79.6768 56.0631 79.6768 55.6806L79.8011 56.503C79.782 56.8154 79.7023 57.0895 79.5621 57.3253C79.4218 57.5612 79.237 57.7461 79.0075 57.88C78.778 58.0075 78.5134 58.0712 78.2138 58.0712C77.7484 58.0712 77.3691 57.9246 77.0759 57.6313C76.789 57.3317 76.6456 56.911 76.6456 56.3691ZM81.9964 57.9756V53.1179H82.9526V57.9756H81.9964ZM85.9743 54.7244V57.9756H85.0276V54.9157C85.0276 54.5587 84.9384 54.2877 84.7599 54.1029C84.5814 53.9116 84.3583 53.816 84.0905 53.816C83.8865 53.816 83.6953 53.8702 83.5168 53.9785C83.3446 54.0869 83.2076 54.259 83.1056 54.4949C83.0036 54.7244 82.9526 55.0336 82.9526 55.4225L82.8378 54.5905C82.8633 54.2782 82.943 54.0072 83.0769 53.7777C83.2172 53.5419 83.402 53.3602 83.6315 53.2327C83.861 53.0988 84.1224 53.0319 84.4156 53.0319C84.8874 53.0319 85.2635 53.1785 85.544 53.4717C85.8308 53.765 85.9743 54.1825 85.9743 54.7244ZM91.5737 57.9756H90.6174V51.282H91.5737V57.9756ZM89.0397 58.0521C88.6635 58.0521 88.3257 57.9501 88.0261 57.7461C87.7264 57.5421 87.4906 57.2552 87.3185 56.8855C87.1527 56.5157 87.0698 56.0823 87.0698 55.585C87.0698 55.075 87.1559 54.6288 87.328 54.2463C87.5065 53.8638 87.7456 53.5674 88.0452 53.357C88.3512 53.1466 88.6986 53.0414 89.0875 53.0414C89.4508 53.0414 89.776 53.1466 90.0628 53.357C90.3497 53.5674 90.576 53.8606 90.7418 54.2367C90.9075 54.6128 90.9904 55.0495 90.9904 55.5468C90.9904 56.0376 90.9043 56.4743 90.7322 56.8568C90.5601 57.2329 90.3274 57.5262 90.0341 57.7365C89.7409 57.9469 89.4094 58.0521 89.0397 58.0521ZM89.317 53.8734C89.0811 53.8734 88.8644 53.9403 88.6667 54.0742C88.4691 54.2017 88.3097 54.3929 88.1886 54.6479C88.0739 54.8965 88.0165 55.2025 88.0165 55.5659C88.0165 55.9229 88.0739 56.2289 88.1886 56.4839C88.3097 56.7389 88.4691 56.9333 88.6667 57.0672C88.8644 57.1947 89.0811 57.2584 89.317 57.2584C89.5592 57.2584 89.776 57.1947 89.9672 57.0672C90.1648 56.9333 90.321 56.7389 90.4358 56.4839C90.5569 56.2289 90.6174 55.9229 90.6174 55.5659C90.6174 55.2025 90.5569 54.8965 90.4358 54.6479C90.321 54.3929 90.1648 54.2017 89.9672 54.0742C89.776 53.9403 89.5592 53.8734 89.317 53.8734ZM95.0073 55.5468C95.0073 55.0431 95.1029 54.6033 95.2942 54.2272C95.4854 53.8447 95.7468 53.5482 96.0783 53.3379C96.4098 53.1275 96.7827 53.0223 97.1971 53.0223C97.6879 53.0223 98.1182 53.1594 98.488 53.4335C98.8641 53.7012 99.1223 54.1252 99.2625 54.7053L98.3732 54.8965C98.2903 54.5778 98.1501 54.326 97.9525 54.1411C97.7612 53.9499 97.5158 53.8542 97.2162 53.8542C96.9867 53.8542 96.7731 53.9212 96.5755 54.055C96.3843 54.1825 96.2313 54.3738 96.1165 54.6288C96.0018 54.8774 95.9444 55.1834 95.9444 55.5468C95.9444 55.9101 96.0018 56.2193 96.1165 56.4743C96.2313 56.7293 96.3843 56.9237 96.5755 57.0576C96.7731 57.1851 96.9867 57.2489 97.2162 57.2489C97.5222 57.2489 97.774 57.1532 97.9716 56.962C98.1692 56.7707 98.3063 56.5157 98.3828 56.197L99.2434 56.3882C99.1095 56.9492 98.8577 57.37 98.488 57.6505C98.1182 57.931 97.6879 58.0712 97.1971 58.0712C96.7827 58.0712 96.4098 57.9692 96.0783 57.7652C95.7468 57.5548 95.4854 57.2616 95.2942 56.8855C95.1029 56.503 95.0073 56.0568 95.0073 55.5468ZM100.299 57.9756V51.282H101.255V57.9756H100.299ZM104.277 54.7244V57.9756H103.33V54.9157C103.33 54.5587 103.241 54.2877 103.063 54.1029C102.884 53.9116 102.661 53.816 102.393 53.816C102.189 53.816 101.998 53.8702 101.82 53.9785C101.647 54.0869 101.51 54.259 101.408 54.4949C101.306 54.7244 101.255 55.0336 101.255 55.4225L101.141 54.5905C101.166 54.2782 101.246 54.0072 101.38 53.7777C101.52 53.5419 101.705 53.3602 101.934 53.2327C102.164 53.0988 102.425 53.0319 102.718 53.0319C103.19 53.0319 103.566 53.1785 103.847 53.4717C104.134 53.765 104.277 54.1825 104.277 54.7244ZM108.633 56.1396C108.627 56.5094 108.547 56.8377 108.394 57.1245C108.248 57.4114 108.044 57.6377 107.782 57.8035C107.521 57.9692 107.218 58.0521 106.874 58.0521C106.562 58.0521 106.294 57.9915 106.071 57.8704C105.854 57.7493 105.688 57.5867 105.573 57.3827C105.459 57.1724 105.401 56.9397 105.401 56.6847C105.401 56.4169 105.456 56.1874 105.564 55.9962C105.679 55.8049 105.851 55.6456 106.08 55.5181C106.316 55.3842 106.619 55.2726 106.989 55.1834L108.681 54.7531V55.4416L107.017 55.9197C106.769 55.9834 106.593 56.0759 106.491 56.197C106.389 56.3181 106.338 56.4584 106.338 56.6177C106.338 56.8154 106.412 56.9747 106.558 57.0959C106.705 57.217 106.896 57.2775 107.132 57.2775C107.381 57.2775 107.601 57.2234 107.792 57.115C107.99 57.0066 108.146 56.86 108.26 56.6751C108.375 56.4839 108.433 56.2639 108.433 56.0153L108.633 56.1396ZM109.379 57.9756H108.433V54.6766C108.433 54.4088 108.35 54.1985 108.184 54.0455C108.018 53.8925 107.782 53.816 107.476 53.816C107.151 53.816 106.89 53.8989 106.692 54.0646C106.495 54.224 106.354 54.4248 106.272 54.667L105.411 54.4088C105.494 54.1347 105.628 53.8957 105.813 53.6917C105.997 53.4813 106.233 53.3187 106.52 53.204C106.813 53.0893 107.154 53.0319 107.543 53.0319C107.9 53.0319 108.216 53.0893 108.49 53.204C108.764 53.3187 108.981 53.5004 109.14 53.7491C109.3 53.9913 109.379 54.31 109.379 54.7053V57.9756ZM110.767 57.9756V53.1179H111.724V57.9756H110.767ZM111.724 55.6902L111.647 55.193C111.647 54.7403 111.708 54.3579 111.829 54.0455C111.956 53.7331 112.125 53.4972 112.336 53.3379C112.552 53.1721 112.795 53.0893 113.062 53.0893H113.406V54.0072H113.043C112.782 54.0072 112.549 54.0774 112.345 54.2176C112.147 54.3515 111.994 54.5459 111.886 54.8009C111.778 55.0495 111.724 55.346 111.724 55.6902ZM115.934 58.0616C115.558 58.0616 115.22 57.9596 114.92 57.7557C114.62 57.5453 114.385 57.2552 114.212 56.8855C114.047 56.5094 113.964 56.0759 113.964 55.585C113.964 55.075 114.05 54.6288 114.222 54.2463C114.4 53.8638 114.64 53.5674 114.939 53.357C115.245 53.1403 115.589 53.0319 115.972 53.0319C116.335 53.0319 116.66 53.1403 116.947 53.357C117.234 53.5674 117.46 53.8606 117.626 54.2367C117.792 54.6128 117.875 55.0495 117.875 55.5468C117.875 56.0376 117.789 56.4743 117.617 56.8568C117.444 57.2329 117.212 57.5293 116.919 57.7461C116.632 57.9565 116.303 58.0616 115.934 58.0616ZM116.192 53.8734C115.956 53.8734 115.739 53.9403 115.542 54.0742C115.35 54.2017 115.194 54.3929 115.073 54.6479C114.958 54.8965 114.901 55.2025 114.901 55.5659C114.901 55.9229 114.958 56.2289 115.073 56.4839C115.194 56.7389 115.35 56.9333 115.542 57.0672C115.739 57.1947 115.956 57.2584 116.192 57.2584C116.434 57.2584 116.651 57.1947 116.842 57.0672C117.04 56.9333 117.196 56.7389 117.311 56.4839C117.432 56.2289 117.492 55.9229 117.492 55.5659C117.492 55.2025 117.432 54.8965 117.311 54.6479C117.196 54.3929 117.04 54.2017 116.842 54.0742C116.651 53.9403 116.434 53.8734 116.192 53.8734ZM117.492 57.9373V53.1179H118.449V57.8513C118.449 58.221 118.388 58.5398 118.267 58.8075C118.152 59.0816 117.99 59.3079 117.779 59.4864C117.569 59.6649 117.323 59.7988 117.043 59.888C116.769 59.9773 116.469 60.0219 116.144 60.0219C115.66 60.0219 115.245 59.9486 114.901 59.802C114.563 59.6554 114.286 59.445 114.069 59.1709L114.757 58.5493C114.885 58.7278 115.067 58.8872 115.303 59.0274C115.538 59.1677 115.816 59.2378 116.134 59.2378C116.581 59.2378 116.919 59.1167 117.148 58.8744C117.378 58.6386 117.492 58.3262 117.492 57.9373ZM122.99 55.2695C122.99 54.9635 122.933 54.7053 122.818 54.4949C122.71 54.2782 122.563 54.1156 122.378 54.0072C122.194 53.8989 121.986 53.8447 121.757 53.8447C121.527 53.8447 121.314 53.9084 121.116 54.0359C120.925 54.1634 120.772 54.3547 120.657 54.6097C120.543 54.8583 120.485 55.1706 120.485 55.5468C120.485 55.8974 120.546 56.2002 120.667 56.4552C120.794 56.7102 120.96 56.9078 121.164 57.048C121.374 57.1819 121.604 57.2489 121.853 57.2489C122.133 57.2489 122.375 57.1755 122.579 57.0289C122.79 56.8759 122.936 56.7197 123.019 56.5604L123.813 56.9524C123.609 57.2903 123.344 57.5612 123.019 57.7652C122.694 57.9692 122.305 58.0712 121.853 58.0712C121.413 58.0712 121.017 57.966 120.667 57.7557C120.323 57.5389 120.048 57.2425 119.844 56.8664C119.647 56.4839 119.548 56.044 119.548 55.5468C119.548 55.0495 119.644 54.6128 119.835 54.2367C120.033 53.8542 120.303 53.5578 120.648 53.3474C120.992 53.1307 121.381 53.0223 121.814 53.0223C122.229 53.0223 122.595 53.1275 122.914 53.3379C123.239 53.5419 123.494 53.8255 123.679 54.1889C123.87 54.5523 123.966 54.973 123.966 55.4511C123.966 55.5085 123.966 55.5659 123.966 55.6233C123.966 55.6806 123.959 55.738 123.947 55.7954H120.045V55.0017H123.373L122.99 55.2695ZM128.62 56.5126C128.62 56.8377 128.534 57.1182 128.361 57.354C128.189 57.5835 127.957 57.762 127.663 57.8895C127.37 58.0106 127.042 58.0712 126.679 58.0712C126.424 58.0712 126.165 58.0393 125.904 57.9756C125.649 57.9055 125.41 57.8067 125.187 57.6792C124.97 57.5517 124.788 57.3923 124.642 57.201L125.254 56.5221C125.432 56.758 125.655 56.9429 125.923 57.0767C126.191 57.2042 126.452 57.268 126.707 57.268C126.937 57.268 127.125 57.2393 127.271 57.1819C127.424 57.1182 127.536 57.0385 127.606 56.9429C127.683 56.8409 127.721 56.7293 127.721 56.6082C127.721 56.4169 127.651 56.2799 127.51 56.197C127.377 56.1078 127.198 56.044 126.975 56.0058C126.758 55.9675 126.526 55.9293 126.277 55.891C126.035 55.8528 125.802 55.7922 125.579 55.7093C125.362 55.6201 125.184 55.4862 125.043 55.3077C124.909 55.1228 124.843 54.8647 124.843 54.5332C124.843 54.2144 124.922 53.9435 125.082 53.7204C125.241 53.4972 125.455 53.3283 125.722 53.2136C125.996 53.0924 126.306 53.0319 126.65 53.0319C127.02 53.0319 127.367 53.0956 127.692 53.2231C128.017 53.3506 128.288 53.5514 128.505 53.8255L127.845 54.4471C127.705 54.2559 127.514 54.106 127.271 53.9977C127.029 53.8829 126.8 53.8255 126.583 53.8255C126.29 53.8255 126.076 53.8893 125.942 54.0168C125.808 54.1443 125.741 54.2845 125.741 54.4375C125.741 54.616 125.808 54.7499 125.942 54.8392C126.082 54.9284 126.261 54.9953 126.478 55.04C126.701 55.0846 126.934 55.1292 127.176 55.1738C127.424 55.2185 127.657 55.2854 127.874 55.3746C128.097 55.4639 128.275 55.5978 128.409 55.7763C128.55 55.9548 128.62 56.2002 128.62 56.5126ZM131.561 53.1179H132.594L134.114 57.966L133.416 58.5876L131.561 53.1179ZM132.747 59.037C132.881 59.037 132.986 59.0051 133.062 58.9414C133.145 58.8776 133.212 58.7661 133.263 58.6067L133.56 57.7748L133.722 57.4688L135.147 53.1179H136.132L134.086 58.9701C134.015 59.1741 133.92 59.3462 133.799 59.4864C133.684 59.6331 133.54 59.7414 133.368 59.8115C133.196 59.888 132.986 59.9263 132.737 59.9263H132.125V59.037H132.747ZM138.837 58.0712C138.41 58.0712 138.027 57.9692 137.689 57.7652C137.358 57.5548 137.093 57.2616 136.896 56.8855C136.705 56.503 136.609 56.0568 136.609 55.5468C136.609 55.0431 136.705 54.6033 136.896 54.2272C137.093 53.8447 137.358 53.5482 137.689 53.3379C138.027 53.1275 138.41 53.0223 138.837 53.0223C139.264 53.0223 139.647 53.1275 139.984 53.3379C140.322 53.5482 140.59 53.8447 140.788 54.2272C140.985 54.6033 141.084 55.0463 141.084 55.5563C141.084 56.0599 140.985 56.503 140.788 56.8855C140.59 57.2616 140.322 57.5548 139.984 57.7652C139.647 57.9692 139.264 58.0712 138.837 58.0712ZM138.837 57.2489C139.079 57.2489 139.299 57.1851 139.497 57.0576C139.694 56.9237 139.85 56.7293 139.965 56.4743C140.08 56.2193 140.137 55.9101 140.137 55.5468C140.137 55.1834 140.08 54.8774 139.965 54.6288C139.85 54.3738 139.694 54.1825 139.497 54.055C139.299 53.9212 139.079 53.8542 138.837 53.8542C138.601 53.8542 138.384 53.9212 138.187 54.055C137.995 54.1825 137.839 54.3738 137.718 54.6288C137.603 54.8774 137.546 55.1834 137.546 55.5468C137.546 55.9101 137.603 56.2193 137.718 56.4743C137.839 56.7293 137.995 56.9237 138.187 57.0576C138.384 57.1851 138.601 57.2489 138.837 57.2489ZM146.15 53.1179V57.9756H145.203V53.1179H146.15ZM142.172 56.3691V53.1179H143.128V56.1779C143.128 56.5412 143.217 56.8185 143.396 57.0098C143.574 57.1947 143.8 57.2871 144.074 57.2871C144.278 57.2871 144.463 57.2329 144.629 57.1245C144.801 57.0162 144.938 56.844 145.04 56.6082C145.149 56.3723 145.203 56.0631 145.203 55.6806L145.327 56.503C145.308 56.8154 145.228 57.0895 145.088 57.3253C144.948 57.5612 144.763 57.7461 144.533 57.88C144.304 58.0075 144.039 58.0712 143.74 58.0712C143.274 58.0712 142.895 57.9246 142.602 57.6313C142.315 57.3317 142.172 56.911 142.172 56.3691ZM149.857 57.9756V53.1179H150.813V57.9756H149.857ZM153.739 54.7244V57.9756H152.783V54.9157C152.783 54.5587 152.697 54.2877 152.525 54.1029C152.359 53.9116 152.145 53.816 151.884 53.816C151.693 53.816 151.514 53.8702 151.349 53.9785C151.189 54.0869 151.059 54.259 150.957 54.4949C150.861 54.7244 150.813 55.0336 150.813 55.4225L150.698 54.6288C150.724 54.31 150.8 54.0327 150.928 53.7969C151.062 53.5546 151.24 53.3666 151.463 53.2327C151.686 53.0988 151.941 53.0319 152.228 53.0319C152.681 53.0319 153.044 53.1785 153.318 53.4717C153.599 53.765 153.739 54.1825 153.739 54.7244ZM156.656 54.7244V57.9756H155.699V54.9157C155.699 54.5587 155.613 54.2877 155.441 54.1029C155.276 53.9116 155.062 53.816 154.801 53.816C154.616 53.816 154.44 53.8702 154.275 53.9785C154.115 54.0869 153.985 54.259 153.883 54.4949C153.787 54.7244 153.739 55.0336 153.739 55.4225L153.548 54.6479C153.573 54.3292 153.656 54.0487 153.797 53.8064C153.937 53.5642 154.122 53.3761 154.351 53.2422C154.587 53.102 154.855 53.0319 155.154 53.0319C155.607 53.0319 155.97 53.1785 156.245 53.4717C156.519 53.765 156.656 54.1825 156.656 54.7244ZM158.047 57.9756V53.1179H159.003V57.9756H158.047ZM158.534 52.3338C158.375 52.3338 158.235 52.2765 158.113 52.1617C157.999 52.0406 157.941 51.9003 157.941 51.741C157.941 51.5816 157.999 51.4445 158.113 51.3298C158.235 51.215 158.375 51.1577 158.534 51.1577C158.7 51.1577 158.84 51.215 158.955 51.3298C159.07 51.4445 159.127 51.5816 159.127 51.741C159.127 51.9003 159.07 52.0406 158.955 52.1617C158.84 52.2765 158.7 52.3338 158.534 52.3338ZM162.083 58.0616C161.707 58.0616 161.369 57.9596 161.069 57.7557C160.77 57.5453 160.534 57.2552 160.362 56.8855C160.196 56.5094 160.113 56.0759 160.113 55.585C160.113 55.075 160.199 54.6288 160.371 54.2463C160.55 53.8638 160.789 53.5674 161.088 53.357C161.394 53.1403 161.739 53.0319 162.121 53.0319C162.485 53.0319 162.81 53.1403 163.097 53.357C163.383 53.5674 163.61 53.8606 163.775 54.2367C163.941 54.6128 164.024 55.0495 164.024 55.5468C164.024 56.0376 163.938 56.4743 163.766 56.8568C163.594 57.2329 163.361 57.5293 163.068 57.7461C162.781 57.9565 162.453 58.0616 162.083 58.0616ZM162.341 53.8734C162.105 53.8734 161.888 53.9403 161.691 54.0742C161.5 54.2017 161.343 54.3929 161.222 54.6479C161.108 54.8965 161.05 55.2025 161.05 55.5659C161.05 55.9229 161.108 56.2289 161.222 56.4839C161.343 56.7389 161.5 56.9333 161.691 57.0672C161.888 57.1947 162.105 57.2584 162.341 57.2584C162.583 57.2584 162.8 57.1947 162.991 57.0672C163.189 56.9333 163.345 56.7389 163.46 56.4839C163.581 56.2289 163.642 55.9229 163.642 55.5659C163.642 55.2025 163.581 54.8965 163.46 54.6479C163.345 54.3929 163.189 54.2017 162.991 54.0742C162.8 53.9403 162.583 53.8734 162.341 53.8734ZM163.642 57.9373V53.1179H164.598V57.8513C164.598 58.221 164.537 58.5398 164.416 58.8075C164.301 59.0816 164.139 59.3079 163.928 59.4864C163.718 59.6649 163.473 59.7988 163.192 59.888C162.918 59.9773 162.618 60.0219 162.293 60.0219C161.809 60.0219 161.394 59.9486 161.05 59.802C160.712 59.6554 160.435 59.445 160.218 59.1709L160.907 58.5493C161.034 58.7278 161.216 58.8872 161.452 59.0274C161.688 59.1677 161.965 59.2378 162.284 59.2378C162.73 59.2378 163.068 59.1167 163.297 58.8744C163.527 58.6386 163.642 58.3262 163.642 57.9373ZM165.975 57.9756V51.282H166.931V57.9756H165.975ZM169.953 54.7244V57.9756H169.006V54.9157C169.006 54.5587 168.917 54.2877 168.738 54.1029C168.56 53.9116 168.336 53.816 168.069 53.816C167.865 53.816 167.674 53.8702 167.495 53.9785C167.323 54.0869 167.186 54.259 167.084 54.4949C166.982 54.7244 166.931 55.0336 166.931 55.4225L166.816 54.5905C166.842 54.2782 166.921 54.0072 167.055 53.7777C167.195 53.5419 167.38 53.3602 167.61 53.2327C167.839 53.0988 168.101 53.0319 168.394 53.0319C168.866 53.0319 169.242 53.1785 169.522 53.4717C169.809 53.765 169.953 54.1825 169.953 54.7244ZM174.091 53.9499H170.83V53.1179H174.091V53.9499ZM173.24 57.1532H174.082V57.9756H172.838C172.666 57.9756 172.51 57.9469 172.37 57.8895C172.236 57.8258 172.128 57.7302 172.045 57.6027C171.968 57.4688 171.93 57.2999 171.93 57.0959V51.7888H172.886V56.809C172.886 56.9301 172.915 57.0194 172.972 57.0767C173.03 57.1277 173.119 57.1532 173.24 57.1532ZM177.442 57.9756V53.1179H178.398V57.9756H177.442ZM181.42 54.7244V57.9756H180.473V54.9157C180.473 54.5587 180.384 54.2877 180.205 54.1029C180.027 53.9116 179.804 53.816 179.536 53.816C179.332 53.816 179.141 53.8702 178.962 53.9785C178.79 54.0869 178.653 54.259 178.551 54.4949C178.449 54.7244 178.398 55.0336 178.398 55.4225L178.283 54.5905C178.309 54.2782 178.389 54.0072 178.522 53.7777C178.663 53.5419 178.848 53.3602 179.077 53.2327C179.307 53.0988 179.568 53.0319 179.861 53.0319C180.333 53.0319 180.709 53.1785 180.99 53.4717C181.276 53.765 181.42 54.1825 181.42 54.7244ZM184.743 58.0712C184.316 58.0712 183.934 57.9692 183.596 57.7652C183.264 57.5548 183 57.2616 182.802 56.8855C182.611 56.503 182.515 56.0568 182.515 55.5468C182.515 55.0431 182.611 54.6033 182.802 54.2272C183 53.8447 183.264 53.5482 183.596 53.3379C183.934 53.1275 184.316 53.0223 184.743 53.0223C185.17 53.0223 185.553 53.1275 185.891 53.3379C186.229 53.5482 186.496 53.8447 186.694 54.2272C186.892 54.6033 186.991 55.0463 186.991 55.5563C186.991 56.0599 186.892 56.503 186.694 56.8855C186.496 57.2616 186.229 57.5548 185.891 57.7652C185.553 57.9692 185.17 58.0712 184.743 58.0712ZM184.743 57.2489C184.986 57.2489 185.206 57.1851 185.403 57.0576C185.601 56.9237 185.757 56.7293 185.872 56.4743C185.986 56.2193 186.044 55.9101 186.044 55.5468C186.044 55.1834 185.986 54.8774 185.872 54.6288C185.757 54.3738 185.601 54.1825 185.403 54.055C185.206 53.9212 184.986 53.8542 184.743 53.8542C184.508 53.8542 184.291 53.9212 184.093 54.055C183.902 54.1825 183.746 54.3738 183.625 54.6288C183.51 54.8774 183.452 55.1834 183.452 55.5468C183.452 55.9101 183.51 56.2193 183.625 56.4743C183.746 56.7293 183.902 56.9237 184.093 57.0576C184.291 57.1851 184.508 57.2489 184.743 57.2489ZM190.844 53.9499H187.583V53.1179H190.844V53.9499ZM189.993 57.1532H190.834V57.9756H189.591C189.419 57.9756 189.263 57.9469 189.123 57.8895C188.989 57.8258 188.88 57.7302 188.797 57.6027C188.721 57.4688 188.683 57.2999 188.683 57.0959V51.7888H189.639V56.809C189.639 56.9301 189.668 57.0194 189.725 57.0767C189.782 57.1277 189.872 57.1532 189.993 57.1532ZM194.195 57.9756V53.1179H195.151V57.9756H194.195ZM198.173 54.7244V57.9756H197.226V54.9157C197.226 54.5587 197.137 54.2877 196.958 54.1029C196.78 53.9116 196.556 53.816 196.289 53.816C196.085 53.816 195.893 53.8702 195.715 53.9785C195.543 54.0869 195.406 54.259 195.304 54.4949C195.202 54.7244 195.151 55.0336 195.151 55.4225L195.036 54.5905C195.062 54.2782 195.141 54.0072 195.275 53.7777C195.415 53.5419 195.6 53.3602 195.83 53.2327C196.059 53.0988 196.321 53.0319 196.614 53.0319C197.086 53.0319 197.462 53.1785 197.742 53.4717C198.029 53.765 198.173 54.1825 198.173 54.7244ZM202.71 55.2695C202.71 54.9635 202.653 54.7053 202.538 54.4949C202.43 54.2782 202.283 54.1156 202.099 54.0072C201.914 53.8989 201.706 53.8447 201.477 53.8447C201.247 53.8447 201.034 53.9084 200.836 54.0359C200.645 54.1634 200.492 54.3547 200.377 54.6097C200.263 54.8583 200.205 55.1706 200.205 55.5468C200.205 55.8974 200.266 56.2002 200.387 56.4552C200.514 56.7102 200.68 56.9078 200.884 57.048C201.094 57.1819 201.324 57.2489 201.573 57.2489C201.853 57.2489 202.095 57.1755 202.299 57.0289C202.51 56.8759 202.656 56.7197 202.739 56.5604L203.533 56.9524C203.329 57.2903 203.064 57.5612 202.739 57.7652C202.414 57.9692 202.025 58.0712 201.573 58.0712C201.133 58.0712 200.737 57.966 200.387 57.7557C200.043 57.5389 199.768 57.2425 199.564 56.8664C199.367 56.4839 199.268 56.044 199.268 55.5468C199.268 55.0495 199.364 54.6128 199.555 54.2367C199.753 53.8542 200.023 53.5578 200.368 53.3474C200.712 53.1307 201.101 53.0223 201.534 53.0223C201.949 53.0223 202.315 53.1275 202.634 53.3379C202.959 53.5419 203.214 53.8255 203.399 54.1889C203.59 54.5523 203.686 54.973 203.686 55.4511C203.686 55.5085 203.686 55.5659 203.686 55.6233C203.686 55.6806 203.679 55.738 203.667 55.7954H199.765V55.0017H203.093L202.71 55.2695ZM208.005 55.2695C208.005 54.9635 207.948 54.7053 207.833 54.4949C207.725 54.2782 207.578 54.1156 207.393 54.0072C207.208 53.8989 207.001 53.8447 206.772 53.8447C206.542 53.8447 206.329 53.9084 206.131 54.0359C205.94 54.1634 205.787 54.3547 205.672 54.6097C205.557 54.8583 205.5 55.1706 205.5 55.5468C205.5 55.8974 205.56 56.2002 205.682 56.4552C205.809 56.7102 205.975 56.9078 206.179 57.048C206.389 57.1819 206.619 57.2489 206.867 57.2489C207.148 57.2489 207.39 57.1755 207.594 57.0289C207.804 56.8759 207.951 56.7197 208.034 56.5604L208.828 56.9524C208.624 57.2903 208.359 57.5612 208.034 57.7652C207.709 57.9692 207.32 58.0712 206.867 58.0712C206.427 58.0712 206.032 57.966 205.682 57.7557C205.337 57.5389 205.063 57.2425 204.859 56.8664C204.662 56.4839 204.563 56.044 204.563 55.5468C204.563 55.0495 204.658 54.6128 204.85 54.2367C205.047 53.8542 205.318 53.5578 205.662 53.3474C206.007 53.1307 206.396 53.0223 206.829 53.0223C207.243 53.0223 207.61 53.1275 207.929 53.3379C208.254 53.5419 208.509 53.8255 208.694 54.1889C208.885 54.5523 208.981 54.973 208.981 55.4511C208.981 55.5085 208.981 55.5659 208.981 55.6233C208.981 55.6806 208.974 55.738 208.961 55.7954H205.06V55.0017H208.388L208.005 55.2695ZM214.361 57.9756H213.405V51.282H214.361V57.9756ZM211.827 58.0521C211.451 58.0521 211.113 57.9501 210.814 57.7461C210.514 57.5421 210.278 57.2552 210.106 56.8855C209.94 56.5157 209.858 56.0823 209.858 55.585C209.858 55.075 209.944 54.6288 210.116 54.2463C210.294 53.8638 210.533 53.5674 210.833 53.357C211.139 53.1466 211.486 53.0414 211.875 53.0414C212.239 53.0414 212.564 53.1466 212.851 53.357C213.137 53.5674 213.364 53.8606 213.529 54.2367C213.695 54.6128 213.778 55.0495 213.778 55.5468C213.778 56.0376 213.692 56.4743 213.52 56.8568C213.348 57.2329 213.115 57.5262 212.822 57.7365C212.529 57.9469 212.197 58.0521 211.827 58.0521ZM212.105 53.8734C211.869 53.8734 211.652 53.9403 211.454 54.0742C211.257 54.2017 211.097 54.3929 210.976 54.6479C210.862 54.8965 210.804 55.2025 210.804 55.5659C210.804 55.9229 210.862 56.2289 210.976 56.4839C211.097 56.7389 211.257 56.9333 211.454 57.0672C211.652 57.1947 211.869 57.2584 212.105 57.2584C212.347 57.2584 212.564 57.1947 212.755 57.0672C212.953 56.9333 213.109 56.7389 213.223 56.4839C213.345 56.2289 213.405 55.9229 213.405 55.5659C213.405 55.2025 213.345 54.8965 213.223 54.6479C213.109 54.3929 212.953 54.2017 212.755 54.0742C212.564 53.9403 212.347 53.8734 212.105 53.8734Z" fill="#236CFF"/>
<g filter="url(#filter1_d_5809_34103)">
<rect x="45.647" y="144.568" width="172.995" height="46.8528" rx="7.20812" fill="white"/>
</g>
<g filter="url(#filter2_d_5809_34103)">
<rect x="45.647" y="249.812" width="172.995" height="46.8528" rx="7.20812" fill="white"/>
</g>
<g opacity="0.5">
<g filter="url(#filter3_d_5809_34103)">
<rect x="45.6453" y="197.192" width="172.995" height="46.8528" rx="7.20812" fill="white"/>
</g>
<path d="M63.0342 217.606V216.425C62.6797 217.234 61.9797 217.697 61.0889 217.697C59.4528 217.697 58.3711 216.388 58.3711 214.425C58.3711 212.462 59.4982 211.153 61.198 211.153C62.516 211.153 63.3705 211.744 63.825 212.871L62.916 213.271C62.5978 212.362 61.9525 212.016 61.198 212.016C60.0982 212.016 59.3346 212.962 59.3346 214.425C59.3346 215.898 60.0891 216.843 61.2798 216.843C62.1888 216.843 62.9251 216.207 63.016 215.161H61.4798V214.298H63.9522V217.606H63.0342ZM65.8915 218.615C66.146 218.615 66.2824 218.506 66.3824 218.206L66.4642 217.988L64.7644 212.989H65.7461L66.9369 216.77L68.1731 212.989H69.1093L67.1641 218.552C66.9641 219.143 66.5824 219.461 65.8824 219.461H65.3007V218.615H65.8915ZM69.9417 217.606V212.989H70.8507V213.88C71.0598 213.28 71.5506 212.907 72.196 212.907C72.8686 212.907 73.3777 213.271 73.5595 213.925C73.7776 213.307 74.2866 212.907 74.9775 212.907C75.8319 212.907 76.4046 213.489 76.4046 214.516V217.606H75.4956V214.698C75.4956 214.016 75.132 213.652 74.6411 213.652C74.1048 213.652 73.6322 214.08 73.6322 215.179V217.606H72.7232V214.698C72.7232 214.016 72.3596 213.652 71.8688 213.652C71.3234 213.652 70.8507 214.08 70.8507 215.179V217.606H69.9417ZM80.0367 217.606V211.244H81.5456L83.0636 216.207L84.5816 211.244H86.0541V217.606H85.127V212.143L83.409 217.606H82.6454L80.9184 212.162V217.606H80.0367ZM91.237 216.634C90.8462 217.279 90.2372 217.697 89.3736 217.697C88.1102 217.697 87.183 216.716 87.183 215.298C87.183 213.889 88.092 212.898 89.3373 212.898C90.5099 212.898 91.3825 213.843 91.3825 215.207C91.3825 215.316 91.3825 215.425 91.3643 215.534H88.0829C88.1738 216.398 88.7192 216.916 89.3736 216.916C89.9009 216.916 90.3281 216.57 90.4826 216.261L91.237 216.634ZM89.2828 213.68C88.7374 213.68 88.2738 214.052 88.1193 214.78H90.4372C90.3463 214.071 89.8645 213.68 89.2828 213.68ZM92.3998 217.606V212.989H93.3088V213.88C93.5179 213.28 94.0087 212.907 94.6541 212.907C95.3267 212.907 95.8358 213.271 96.0176 213.925C96.2357 213.307 96.7447 212.907 97.4356 212.907C98.29 212.907 98.8626 213.489 98.8626 214.516V217.606H97.9537V214.698C97.9537 214.016 97.5901 213.652 97.0992 213.652C96.5629 213.652 96.0903 214.08 96.0903 215.179V217.606H95.1813V214.698C95.1813 214.016 94.8177 213.652 94.3269 213.652C93.7815 213.652 93.3088 214.08 93.3088 215.179V217.606H92.3998ZM100.185 217.606V211.244H101.094V213.834C101.421 213.262 101.966 212.916 102.603 212.916C103.666 212.916 104.466 213.852 104.466 215.261C104.466 216.725 103.648 217.679 102.557 217.679C101.939 217.679 101.421 217.343 101.094 216.77V217.606H100.185ZM102.321 216.925C103.003 216.925 103.557 216.343 103.557 215.316C103.557 214.289 103.003 213.707 102.321 213.707C101.694 213.707 101.166 214.207 101.094 215.098V215.534C101.166 216.425 101.694 216.925 102.321 216.925ZM109.372 216.634C108.981 217.279 108.372 217.697 107.509 217.697C106.245 217.697 105.318 216.716 105.318 215.298C105.318 213.889 106.227 212.898 107.472 212.898C108.645 212.898 109.518 213.843 109.518 215.207C109.518 215.316 109.518 215.425 109.499 215.534H106.218C106.309 216.398 106.854 216.916 107.509 216.916C108.036 216.916 108.463 216.57 108.618 216.261L109.372 216.634ZM107.418 213.68C106.873 213.68 106.409 214.052 106.254 214.78H108.572C108.481 214.071 108 213.68 107.418 213.68ZM110.535 217.606V212.989H111.444V214.225C111.626 213.407 112.117 212.962 112.717 212.962H113.044V213.834H112.698C111.944 213.834 111.444 214.452 111.444 215.434V217.606H110.535ZM117.306 216.216C117.306 217.143 116.497 217.697 115.461 217.697C114.724 217.697 113.943 217.416 113.524 216.87L114.106 216.225C114.442 216.67 114.997 216.934 115.488 216.934C116.142 216.934 116.451 216.652 116.451 216.307C116.451 215.234 113.715 216.216 113.715 214.334C113.715 213.425 114.452 212.907 115.433 212.907C116.133 212.907 116.779 213.143 117.197 213.661L116.57 214.252C116.297 213.889 115.779 213.661 115.37 213.661C114.815 213.661 114.57 213.952 114.57 214.243C114.57 215.279 117.306 214.425 117.306 216.216ZM118.355 217.606V211.244H119.264V213.871C119.482 213.28 119.992 212.907 120.655 212.907C121.546 212.907 122.137 213.489 122.137 214.516V217.606H121.237V214.698C121.237 214.016 120.855 213.652 120.346 213.652C119.755 213.652 119.264 214.08 119.264 215.179V217.606H118.355ZM123.905 212.243C123.596 212.243 123.342 211.989 123.342 211.68C123.342 211.38 123.596 211.125 123.905 211.125C124.214 211.125 124.469 211.38 124.469 211.68C124.469 211.989 124.214 212.243 123.905 212.243ZM123.442 217.606V212.989H124.351V217.606H123.442ZM125.67 212.989H126.579V213.843C126.915 213.262 127.451 212.907 128.088 212.907C129.151 212.907 129.951 213.861 129.951 215.261C129.951 216.716 129.133 217.688 128.042 217.688C127.433 217.688 126.906 217.343 126.579 216.77V219.461H125.67V212.989ZM127.815 216.925C128.488 216.925 129.051 216.343 129.051 215.316C129.051 214.289 128.488 213.707 127.815 213.707C127.133 213.707 126.579 214.289 126.579 215.316C126.579 216.343 127.133 216.925 127.815 216.925Z" fill="#0D0031"/>
<path d="M58.6438 228.606V222.244H60.1527L61.6707 227.207L63.1887 222.244H64.6612V228.606H63.7341V223.143L62.0161 228.606H61.2526L59.5255 223.162V228.606H58.6438ZM67.908 228.697C66.69 228.697 65.7901 227.752 65.7901 226.298C65.7901 224.861 66.69 223.898 67.908 223.898C69.1261 223.898 70.0441 224.861 70.0441 226.298C70.0441 227.752 69.1261 228.697 67.908 228.697ZM67.908 227.916C68.5989 227.916 69.1442 227.334 69.1442 226.298C69.1442 225.271 68.5989 224.689 67.908 224.689C67.2354 224.689 66.6809 225.271 66.6809 226.298C66.6809 227.334 67.2354 227.916 67.908 227.916ZM71.078 228.606V223.989H71.9869V224.871C72.2051 224.28 72.7141 223.907 73.3777 223.907C74.2685 223.907 74.8593 224.489 74.8593 225.516V228.606H73.9594V225.698C73.9594 225.016 73.5776 224.652 73.0686 224.652C72.4778 224.652 71.9869 225.08 71.9869 226.179V228.606H71.078ZM77.9844 227.825H78.7843V228.606H77.6026C77.1027 228.606 76.7391 228.352 76.7391 227.77V224.78H75.6938V223.989H76.7391V222.725H77.6481V223.989H78.7934V224.78H77.6481V227.497C77.6481 227.734 77.7481 227.825 77.9844 227.825ZM79.7594 228.606V222.244H80.6684V224.871C80.8865 224.28 81.3955 223.907 82.0591 223.907C82.9499 223.907 83.5407 224.489 83.5407 225.516V228.606H82.6408V225.698C82.6408 225.016 82.2591 224.652 81.75 224.652C81.1592 224.652 80.6684 225.08 80.6684 226.179V228.606H79.7594ZM84.8457 228.606V222.244H85.7547V228.606H84.8457ZM87.7283 229.615C87.9828 229.615 88.1191 229.506 88.2191 229.206L88.3009 228.988L86.6011 223.989H87.5828L88.7736 227.77L90.0098 223.989H90.946L89.0008 229.552C88.8009 230.143 88.4191 230.461 87.7192 230.461H87.1374V229.615H87.7283Z" fill="#0D0031" fill-opacity="0.3"/>
<path d="M178.669 218.034V217.361C177.896 217.27 177.151 216.852 176.797 216.134L177.487 215.643C177.742 216.17 178.187 216.479 178.669 216.588V214.78C177.833 214.616 176.997 214.334 176.997 213.152C176.997 212.18 177.715 211.571 178.669 211.48V210.825H179.323V211.498C180.032 211.589 180.669 211.944 181.06 212.616L180.36 213.125C180.114 212.707 179.742 212.416 179.323 212.298V214.007C180.205 214.18 181.151 214.407 181.151 215.634C181.151 216.634 180.387 217.279 179.323 217.379V218.034H178.669ZM177.851 213.098C177.851 213.589 178.196 213.789 178.669 213.925V212.262C178.151 212.334 177.851 212.68 177.851 213.098ZM180.278 215.689C180.278 215.152 179.86 214.97 179.323 214.852V216.607C179.96 216.516 180.278 216.143 180.278 215.689ZM182.221 216.879L184.339 214.716C185.057 213.971 185.257 213.543 185.257 213.062C185.257 212.416 184.776 212.007 184.103 212.007C183.421 212.007 182.985 212.434 182.803 213.043L181.994 212.825C182.249 211.725 183.121 211.18 184.167 211.18C185.321 211.18 186.176 211.925 186.176 212.998C186.176 213.807 185.785 214.407 184.903 215.316L183.476 216.779H186.276V217.606H182.24L182.221 216.879ZM189.566 217.697C188.139 217.697 187.139 216.461 187.139 214.425C187.139 212.389 188.139 211.153 189.566 211.153C191.012 211.153 192.021 212.407 192.021 214.425C192.021 216.443 191.012 217.697 189.566 217.697ZM189.566 216.879C190.448 216.879 191.093 215.988 191.093 214.425C191.093 212.862 190.457 211.98 189.566 211.98C188.694 211.98 188.076 212.862 188.076 214.425C188.076 215.988 188.694 216.879 189.566 216.879ZM193.27 217.652C192.96 217.652 192.697 217.388 192.697 217.061C192.697 216.743 192.96 216.47 193.27 216.47C193.588 216.47 193.86 216.743 193.86 217.061C193.86 217.388 193.588 217.652 193.27 217.652ZM199.176 214.298C199.176 216.425 198.158 217.697 196.612 217.697C195.84 217.697 195.222 217.416 194.767 216.843L195.513 216.27C195.785 216.634 196.176 216.87 196.667 216.87C197.621 216.87 198.24 215.934 198.24 214.243C198.24 214.216 198.24 214.198 198.24 214.18C197.958 214.898 197.358 215.316 196.585 215.316C195.449 215.316 194.64 214.543 194.64 213.316C194.64 212.007 195.576 211.153 196.758 211.153C198.212 211.153 199.176 212.334 199.176 214.298ZM198.067 213.271C198.067 212.525 197.485 211.98 196.812 211.98C196.176 211.98 195.567 212.453 195.567 213.271C195.567 214.089 196.176 214.561 196.812 214.561C197.485 214.561 198.067 214.052 198.067 213.271ZM204.644 214.298C204.644 216.425 203.626 217.697 202.081 217.697C201.308 217.697 200.69 217.416 200.235 216.843L200.981 216.27C201.253 216.634 201.644 216.87 202.135 216.87C203.09 216.87 203.708 215.934 203.708 214.243C203.708 214.216 203.708 214.198 203.708 214.18C203.426 214.898 202.826 215.316 202.053 215.316C200.917 215.316 200.108 214.543 200.108 213.316C200.108 212.007 201.044 211.153 202.226 211.153C203.68 211.153 204.644 212.334 204.644 214.298ZM203.535 213.271C203.535 212.525 202.953 211.98 202.281 211.98C201.644 211.98 201.035 212.453 201.035 213.271C201.035 214.089 201.644 214.561 202.281 214.561C202.953 214.561 203.535 214.052 203.535 213.271Z" fill="#0D0031"/>
</g>
<path d="M58.6458 164.99V158.627H59.6002V164.99H58.6458ZM60.996 164.99V160.373H61.9049V161.254C62.1231 160.664 62.6321 160.291 63.2957 160.291C64.1865 160.291 64.7773 160.873 64.7773 161.9V164.99H63.8774V162.082C63.8774 161.4 63.4956 161.036 62.9866 161.036C62.3958 161.036 61.9049 161.463 61.9049 162.563V164.99H60.996ZM67.9024 164.209H68.7023V164.99H67.5206C67.0207 164.99 66.6571 164.736 66.6571 164.154V161.163H65.6118V160.373H66.6571V159.109H67.5661V160.373H68.7114V161.163H67.5661V163.881C67.5661 164.118 67.6661 164.209 67.9024 164.209ZM73.4146 164.018C73.0237 164.663 72.4147 165.081 71.5511 165.081C70.2877 165.081 69.3605 164.099 69.3605 162.681C69.3605 161.273 70.2695 160.282 71.5148 160.282C72.6874 160.282 73.56 161.227 73.56 162.591C73.56 162.7 73.56 162.809 73.5418 162.918H70.2604C70.3513 163.781 70.8967 164.299 71.5511 164.299C72.0784 164.299 72.5056 163.954 72.6601 163.645L73.4146 164.018ZM71.4603 161.063C70.9149 161.063 70.4513 161.436 70.2968 162.163H72.6147C72.5238 161.454 72.042 161.063 71.4603 161.063ZM74.5773 164.99V160.373H75.4863V161.609C75.6681 160.791 76.1589 160.345 76.7589 160.345H77.0861V161.218H76.7407C75.9862 161.218 75.4863 161.836 75.4863 162.818V164.99H74.5773ZM77.9239 164.99V160.373H78.8328V161.254C79.051 160.664 79.56 160.291 80.2236 160.291C81.1144 160.291 81.7052 160.873 81.7052 161.9V164.99H80.8053V162.082C80.8053 161.4 80.4235 161.036 79.9145 161.036C79.3237 161.036 78.8328 161.463 78.8328 162.563V164.99H77.9239ZM86.8006 164.018C86.4098 164.663 85.8008 165.081 84.9372 165.081C83.6738 165.081 82.7466 164.099 82.7466 162.681C82.7466 161.273 83.6556 160.282 84.9009 160.282C86.0735 160.282 86.9461 161.227 86.9461 162.591C86.9461 162.7 86.9461 162.809 86.9279 162.918H83.6465C83.7374 163.781 84.2828 164.299 84.9372 164.299C85.4644 164.299 85.8917 163.954 86.0462 163.645L86.8006 164.018ZM84.8463 161.063C84.301 161.063 83.8374 161.436 83.6829 162.163H86.0007C85.9098 161.454 85.4281 161.063 84.8463 161.063ZM89.7835 164.209H90.5834V164.99H89.4017C88.9018 164.99 88.5382 164.736 88.5382 164.154V161.163H87.4929V160.373H88.5382V159.109H89.4472V160.373H90.5925V161.163H89.4472V163.881C89.4472 164.118 89.5472 164.209 89.7835 164.209Z" fill="#0D0031"/>
<path d="M58.6458 175.99V169.627H60.1547L61.6726 174.59L63.1906 169.627H64.6632V175.99H63.736V170.527L62.0181 175.99H61.2545L59.5275 170.545V175.99H58.6458ZM67.91 176.081C66.692 176.081 65.7921 175.136 65.7921 173.681C65.7921 172.245 66.692 171.282 67.91 171.282C69.128 171.282 70.0461 172.245 70.0461 173.681C70.0461 175.136 69.128 176.081 67.91 176.081ZM67.91 175.299C68.6008 175.299 69.1462 174.718 69.1462 173.681C69.1462 172.654 68.6008 172.073 67.91 172.073C67.2373 172.073 66.6829 172.654 66.6829 173.681C66.6829 174.718 67.2373 175.299 67.91 175.299ZM71.0799 175.99V171.373H71.9889V172.254C72.207 171.664 72.7161 171.291 73.3796 171.291C74.2704 171.291 74.8612 171.873 74.8612 172.9V175.99H73.9614V173.082C73.9614 172.4 73.5796 172.036 73.0706 172.036C72.4797 172.036 71.9889 172.463 71.9889 173.563V175.99H71.0799ZM77.9863 175.209H78.7862V175.99H77.6046C77.1046 175.99 76.741 175.736 76.741 175.154V172.163H75.6957V171.373H76.741V170.109H77.65V171.373H78.7953V172.163H77.65V174.881C77.65 175.118 77.75 175.209 77.9863 175.209ZM79.7613 175.99V169.627H80.6703V172.254C80.8885 171.664 81.3975 171.291 82.061 171.291C82.9518 171.291 83.5427 171.873 83.5427 172.9V175.99H82.6428V173.082C82.6428 172.4 82.261 172.036 81.752 172.036C81.1612 172.036 80.6703 172.463 80.6703 173.563V175.99H79.7613ZM84.8477 175.99V169.627H85.7567V175.99H84.8477ZM87.7302 176.999C87.9847 176.999 88.1211 176.89 88.2211 176.59L88.3029 176.372L86.6031 171.373H87.5848L88.7755 175.154L90.0117 171.373H90.948L89.0028 176.936C88.8028 177.526 88.421 177.845 87.7211 177.845H87.1394V176.999H87.7302Z" fill="#0D0031" fill-opacity="0.3"/>
<path d="M178.749 165.417V164.745C177.976 164.654 177.231 164.236 176.876 163.518L177.567 163.027C177.822 163.554 178.267 163.863 178.749 163.972V162.163C177.913 162 177.076 161.718 177.076 160.536C177.076 159.564 177.794 158.955 178.749 158.864V158.209H179.403V158.882C180.112 158.973 180.749 159.327 181.14 160L180.44 160.509C180.194 160.091 179.822 159.8 179.403 159.682V161.391C180.285 161.563 181.23 161.791 181.23 163.018C181.23 164.018 180.467 164.663 179.403 164.763V165.417H178.749ZM177.931 160.482C177.931 160.973 178.276 161.173 178.749 161.309V159.645C178.231 159.718 177.931 160.064 177.931 160.482ZM180.358 163.072C180.358 162.536 179.94 162.354 179.403 162.236V163.99C180.04 163.899 180.358 163.527 180.358 163.072ZM186.646 163.209C186.646 164.372 185.719 165.081 184.465 165.081C183.201 165.081 182.301 164.445 182.301 163.29C182.301 162.609 182.692 162.127 183.329 161.818C182.819 161.545 182.447 161.091 182.447 160.327C182.447 159.273 183.265 158.546 184.474 158.546C185.628 158.546 186.474 159.182 186.474 160.264C186.474 160.873 186.128 161.354 185.619 161.654C186.201 161.909 186.646 162.363 186.646 163.209ZM184.792 161.409C184.801 161.409 184.81 161.409 184.819 161.418C185.301 161.218 185.592 160.836 185.592 160.336C185.592 159.718 185.101 159.345 184.465 159.345C183.838 159.345 183.347 159.709 183.347 160.327C183.347 160.973 183.928 161.245 184.792 161.409ZM185.746 163.254C185.746 162.527 185.128 162.281 184.301 162.127C184.219 162.109 184.138 162.1 184.047 162.072C183.51 162.272 183.183 162.672 183.183 163.19C183.183 163.909 183.747 164.299 184.474 164.299C185.192 164.299 185.746 163.909 185.746 163.254ZM192.003 161.682C192.003 163.809 190.985 165.081 189.44 165.081C188.667 165.081 188.049 164.799 187.595 164.227L188.34 163.654C188.613 164.018 189.004 164.254 189.495 164.254C190.449 164.254 191.067 163.318 191.067 161.627C191.067 161.6 191.067 161.582 191.067 161.563C190.785 162.281 190.185 162.7 189.413 162.7C188.277 162.7 187.468 161.927 187.468 160.7C187.468 159.391 188.404 158.537 189.586 158.537C191.04 158.537 192.003 159.718 192.003 161.682ZM190.894 160.654C190.894 159.909 190.313 159.364 189.64 159.364C189.004 159.364 188.395 159.836 188.395 160.654C188.395 161.472 189.004 161.945 189.64 161.945C190.313 161.945 190.894 161.436 190.894 160.654ZM193.27 165.036C192.96 165.036 192.697 164.772 192.697 164.445C192.697 164.127 192.96 163.854 193.27 163.854C193.588 163.854 193.86 164.127 193.86 164.445C193.86 164.772 193.588 165.036 193.27 165.036ZM199.176 161.682C199.176 163.809 198.158 165.081 196.612 165.081C195.84 165.081 195.222 164.799 194.767 164.227L195.513 163.654C195.785 164.018 196.176 164.254 196.667 164.254C197.621 164.254 198.24 163.318 198.24 161.627C198.24 161.6 198.24 161.582 198.24 161.563C197.958 162.281 197.358 162.7 196.585 162.7C195.449 162.7 194.64 161.927 194.64 160.7C194.64 159.391 195.576 158.537 196.758 158.537C198.212 158.537 199.176 159.718 199.176 161.682ZM198.067 160.654C198.067 159.909 197.485 159.364 196.812 159.364C196.176 159.364 195.567 159.836 195.567 160.654C195.567 161.472 196.176 161.945 196.812 161.945C197.485 161.945 198.067 161.436 198.067 160.654ZM204.644 161.682C204.644 163.809 203.626 165.081 202.081 165.081C201.308 165.081 200.69 164.799 200.235 164.227L200.981 163.654C201.253 164.018 201.644 164.254 202.135 164.254C203.09 164.254 203.708 163.318 203.708 161.627C203.708 161.6 203.708 161.582 203.708 161.563C203.426 162.281 202.826 162.7 202.053 162.7C200.917 162.7 200.108 161.927 200.108 160.7C200.108 159.391 201.044 158.537 202.226 158.537C203.68 158.537 204.644 159.718 204.644 161.682ZM203.535 160.654C203.535 159.909 202.953 159.364 202.281 159.364C201.644 159.364 201.035 159.836 201.035 160.654C201.035 161.472 201.644 161.945 202.281 161.945C202.953 161.945 203.535 161.436 203.535 160.654Z" fill="#0D0031"/>
<path d="M58.6458 270.227V263.864H60.1547L61.6726 268.827L63.1906 263.864H64.6632V270.227H63.736V264.764L62.0181 270.227H61.2545L59.5275 264.782V270.227H58.6458ZM66.0557 268.699V265.609H66.9647V268.518C66.9647 269.209 67.3464 269.572 67.8645 269.572C68.4372 269.572 68.9371 269.136 68.9371 268.045V265.609H69.837V270.227H68.9371V269.372C68.7099 269.954 68.2009 270.317 67.5464 270.317C66.6647 270.317 66.0557 269.727 66.0557 268.699ZM74.4598 268.836C74.4598 269.763 73.6508 270.317 72.6146 270.317C71.8783 270.317 71.0966 270.036 70.6785 269.49L71.2602 268.845C71.5965 269.29 72.151 269.554 72.6419 269.554C73.2963 269.554 73.6054 269.272 73.6054 268.927C73.6054 267.854 70.8693 268.836 70.8693 266.954C70.8693 266.045 71.6056 265.527 72.5873 265.527C73.2872 265.527 73.9326 265.763 74.3507 266.282L73.7235 266.872C73.4508 266.509 72.9327 266.282 72.5237 266.282C71.9692 266.282 71.7238 266.572 71.7238 266.863C71.7238 267.9 74.4598 267.045 74.4598 268.836ZM75.973 264.864C75.6639 264.864 75.4094 264.609 75.4094 264.3C75.4094 264 75.6639 263.746 75.973 263.746C76.282 263.746 76.5365 264 76.5365 264.3C76.5365 264.609 76.282 264.864 75.973 264.864ZM75.5094 270.227V265.609H76.4184V270.227H75.5094ZM77.4738 267.918C77.4738 266.482 78.3646 265.518 79.5554 265.518C80.4916 265.518 81.2552 266.018 81.5188 267.118L80.6734 267.3C80.5189 266.7 80.1462 266.309 79.5736 266.309C78.91 266.309 78.3646 266.891 78.3646 267.918C78.3646 268.954 78.91 269.536 79.5736 269.536C80.1553 269.536 80.5371 269.145 80.6825 268.536L81.5006 268.718C81.2461 269.79 80.4825 270.317 79.5554 270.317C78.3646 270.317 77.4738 269.372 77.4738 267.918ZM89.0683 268.345C89.0683 269.563 88.0685 270.317 86.7141 270.317C85.7142 270.317 84.7416 269.945 84.2417 269.136L84.9416 268.518C85.3143 269.145 86.0414 269.481 86.7141 269.481C87.6503 269.481 88.1048 269.009 88.1048 268.418C88.1048 266.827 84.5416 268.136 84.5416 265.636C84.5416 264.464 85.487 263.773 86.6595 263.773C87.6231 263.773 88.4684 264.118 89.0138 264.9L88.2866 265.518C87.9048 264.973 87.2867 264.627 86.6505 264.627C85.9233 264.627 85.5051 265.036 85.5051 265.564C85.5051 267.163 89.0683 265.863 89.0683 268.345ZM94.0796 269.254C93.6887 269.899 93.0797 270.317 92.2162 270.317C90.9527 270.317 90.0255 269.336 90.0255 267.918C90.0255 266.509 90.9345 265.518 92.1798 265.518C93.3524 265.518 94.225 266.463 94.225 267.827C94.225 267.936 94.225 268.045 94.2068 268.154H90.9254C91.0163 269.018 91.5617 269.536 92.2162 269.536C92.7434 269.536 93.1706 269.19 93.3251 268.881L94.0796 269.254ZM92.1253 266.3C91.5799 266.3 91.1163 266.672 90.9618 267.4H93.2797C93.1888 266.691 92.707 266.3 92.1253 266.3ZM95.2423 270.227V265.609H96.1513V266.845C96.3331 266.027 96.8239 265.582 97.4239 265.582H97.7511V266.454H97.4057C96.6512 266.454 96.1513 267.072 96.1513 268.054V270.227H95.2423ZM98.2937 265.609H99.2845L100.493 269.281L101.693 265.609H102.63L101.002 270.227H99.9208L98.2937 265.609ZM103.926 264.864C103.617 264.864 103.362 264.609 103.362 264.3C103.362 264 103.617 263.746 103.926 263.746C104.235 263.746 104.489 264 104.489 264.3C104.489 264.609 104.235 264.864 103.926 264.864ZM103.462 270.227V265.609H104.371V270.227H103.462ZM105.427 267.918C105.427 266.482 106.317 265.518 107.508 265.518C108.444 265.518 109.208 266.018 109.472 267.118L108.626 267.3C108.472 266.7 108.099 266.309 107.526 266.309C106.863 266.309 106.317 266.891 106.317 267.918C106.317 268.954 106.863 269.536 107.526 269.536C108.108 269.536 108.49 269.145 108.635 268.536L109.453 268.718C109.199 269.79 108.435 270.317 107.508 270.317C106.317 270.317 105.427 269.372 105.427 267.918ZM114.247 269.254C113.857 269.899 113.248 270.317 112.384 270.317C111.121 270.317 110.193 269.336 110.193 267.918C110.193 266.509 111.102 265.518 112.348 265.518C113.52 265.518 114.393 266.463 114.393 267.827C114.393 267.936 114.393 268.045 114.375 268.154H111.093C111.184 269.018 111.73 269.536 112.384 269.536C112.911 269.536 113.338 269.19 113.493 268.881L114.247 269.254ZM112.293 266.3C111.748 266.3 111.284 266.672 111.13 267.4H113.448C113.357 266.691 112.875 266.3 112.293 266.3Z" fill="#0D0031"/>
<path d="M58.6458 281.227V274.864H60.1547L61.6726 279.827L63.1906 274.864H64.6632V281.227H63.736V275.764L62.0181 281.227H61.2545L59.5275 275.782V281.227H58.6458ZM67.91 281.317C66.692 281.317 65.7921 280.372 65.7921 278.918C65.7921 277.482 66.692 276.518 67.91 276.518C69.128 276.518 70.0461 277.482 70.0461 278.918C70.0461 280.372 69.128 281.317 67.91 281.317ZM67.91 280.536C68.6008 280.536 69.1462 279.954 69.1462 278.918C69.1462 277.891 68.6008 277.309 67.91 277.309C67.2373 277.309 66.6829 277.891 66.6829 278.918C66.6829 279.954 67.2373 280.536 67.91 280.536ZM71.0799 281.227V276.609H71.9889V277.491C72.207 276.9 72.7161 276.527 73.3796 276.527C74.2704 276.527 74.8612 277.109 74.8612 278.136V281.227H73.9614V278.318C73.9614 277.636 73.5796 277.273 73.0706 277.273C72.4797 277.273 71.9889 277.7 71.9889 278.8V281.227H71.0799ZM77.9863 280.445H78.7862V281.227H77.6046C77.1046 281.227 76.741 280.972 76.741 280.39V277.4H75.6957V276.609H76.741V275.345H77.65V276.609H78.7953V277.4H77.65V280.118C77.65 280.354 77.75 280.445 77.9863 280.445ZM79.7613 281.227V274.864H80.6703V277.491C80.8885 276.9 81.3975 276.527 82.061 276.527C82.9518 276.527 83.5427 277.109 83.5427 278.136V281.227H82.6428V278.318C82.6428 277.636 82.261 277.273 81.752 277.273C81.1612 277.273 80.6703 277.7 80.6703 278.8V281.227H79.7613ZM84.8477 281.227V274.864H85.7567V281.227H84.8477ZM87.7302 282.236C87.9847 282.236 88.1211 282.126 88.2211 281.826L88.3029 281.608L86.6031 276.609H87.5848L88.7755 280.39L90.0117 276.609H90.948L89.0028 282.172C88.8028 282.763 88.421 283.081 87.7211 283.081H87.1394V282.236H87.7302Z" fill="#0D0031" fill-opacity="0.3"/>
<path d="M179.051 270.654V269.981C178.278 269.89 177.533 269.472 177.178 268.754L177.869 268.263C178.124 268.79 178.569 269.099 179.051 269.209V267.4C178.214 267.236 177.378 266.954 177.378 265.773C177.378 264.8 178.096 264.191 179.051 264.1V263.446H179.705V264.118C180.414 264.209 181.05 264.564 181.441 265.236L180.741 265.745C180.496 265.327 180.123 265.036 179.705 264.918V266.627C180.587 266.8 181.532 267.027 181.532 268.254C181.532 269.254 180.769 269.899 179.705 269.999V270.654H179.051ZM178.233 265.718C178.233 266.209 178.578 266.409 179.051 266.545V264.882C178.533 264.955 178.233 265.3 178.233 265.718ZM180.66 268.309C180.66 267.772 180.241 267.591 179.705 267.472V269.227C180.341 269.136 180.66 268.763 180.66 268.309ZM182.53 269.399H184.167V264.845C183.676 265.073 183.167 265.209 182.54 265.273L182.449 264.482C183.094 264.4 183.721 264.218 184.348 263.864H185.076V269.399H186.712V270.227H182.53V269.399ZM189.566 270.317C188.139 270.317 187.139 269.081 187.139 267.045C187.139 265.009 188.139 263.773 189.566 263.773C191.012 263.773 192.021 265.027 192.021 267.045C192.021 269.063 191.012 270.317 189.566 270.317ZM189.566 269.499C190.448 269.499 191.093 268.609 191.093 267.045C191.093 265.482 190.457 264.6 189.566 264.6C188.694 264.6 188.076 265.482 188.076 267.045C188.076 268.609 188.694 269.499 189.566 269.499ZM193.27 270.272C192.96 270.272 192.697 270.008 192.697 269.681C192.697 269.363 192.96 269.09 193.27 269.09C193.588 269.09 193.86 269.363 193.86 269.681C193.86 270.008 193.588 270.272 193.27 270.272ZM199.176 266.918C199.176 269.045 198.158 270.317 196.612 270.317C195.84 270.317 195.222 270.036 194.767 269.463L195.513 268.89C195.785 269.254 196.176 269.49 196.667 269.49C197.621 269.49 198.24 268.554 198.24 266.863C198.24 266.836 198.24 266.818 198.24 266.8C197.958 267.518 197.358 267.936 196.585 267.936C195.449 267.936 194.64 267.163 194.64 265.936C194.64 264.627 195.576 263.773 196.758 263.773C198.212 263.773 199.176 264.955 199.176 266.918ZM198.067 265.891C198.067 265.145 197.485 264.6 196.812 264.6C196.176 264.6 195.567 265.073 195.567 265.891C195.567 266.709 196.176 267.181 196.812 267.181C197.485 267.181 198.067 266.672 198.067 265.891ZM204.644 266.918C204.644 269.045 203.626 270.317 202.081 270.317C201.308 270.317 200.69 270.036 200.235 269.463L200.981 268.89C201.253 269.254 201.644 269.49 202.135 269.49C203.09 269.49 203.708 268.554 203.708 266.863C203.708 266.836 203.708 266.818 203.708 266.8C203.426 267.518 202.826 267.936 202.053 267.936C200.917 267.936 200.108 267.163 200.108 265.936C200.108 264.627 201.044 263.773 202.226 263.773C203.68 263.773 204.644 264.955 204.644 266.918ZM203.535 265.891C203.535 265.145 202.953 264.6 202.281 264.6C201.644 264.6 201.035 265.073 201.035 265.891C201.035 266.709 201.644 267.181 202.281 267.181C202.953 267.181 203.535 266.672 203.535 265.891Z" fill="#0D0031"/>
<g filter="url(#filter4_d_5809_34103)">
<rect x="18.415" y="80.8643" width="227.455" height="94.9813" rx="18.7463" fill="white"/>
</g>
<rect x="31.5369" y="132.73" width="200.586" height="29.3692" rx="14.6846" fill="#236CFF"/>
<path d="M121.107 150.506C120.57 150.506 120.093 150.37 119.677 150.098C119.26 149.827 118.937 149.446 118.708 148.957C118.479 148.468 118.364 147.898 118.364 147.246C118.364 146.594 118.479 146.024 118.708 145.535C118.937 145.046 119.257 144.666 119.668 144.394C120.084 144.122 120.564 143.987 121.107 143.987C121.53 143.987 121.916 144.065 122.266 144.222C122.622 144.379 122.924 144.617 123.172 144.937C123.419 145.257 123.594 145.662 123.697 146.151L122.755 146.368C122.689 146.03 122.577 145.749 122.42 145.526C122.263 145.302 122.073 145.133 121.85 145.019C121.626 144.904 121.379 144.847 121.107 144.847C120.763 144.847 120.455 144.946 120.184 145.146C119.918 145.339 119.71 145.616 119.559 145.978C119.408 146.335 119.333 146.757 119.333 147.246C119.333 147.729 119.408 148.151 119.559 148.514C119.71 148.876 119.918 149.157 120.184 149.356C120.455 149.555 120.763 149.654 121.107 149.654C121.385 149.654 121.635 149.597 121.859 149.482C122.082 149.368 122.272 149.196 122.429 148.966C122.592 148.737 122.707 148.456 122.773 148.124L123.688 148.342C123.585 148.818 123.41 149.22 123.163 149.546C122.915 149.866 122.613 150.107 122.257 150.27C121.907 150.427 121.524 150.506 121.107 150.506ZM127.578 148.677C127.572 149.027 127.496 149.338 127.351 149.609C127.213 149.881 127.019 150.095 126.772 150.252C126.524 150.409 126.238 150.487 125.912 150.487C125.616 150.487 125.362 150.43 125.151 150.315C124.946 150.201 124.789 150.047 124.68 149.854C124.572 149.654 124.517 149.434 124.517 149.193C124.517 148.939 124.569 148.722 124.671 148.541C124.78 148.36 124.943 148.209 125.16 148.088C125.384 147.961 125.67 147.856 126.02 147.771L127.623 147.364V148.016L126.048 148.468C125.812 148.529 125.646 148.616 125.55 148.731C125.453 148.846 125.405 148.978 125.405 149.129C125.405 149.316 125.474 149.467 125.613 149.582C125.752 149.697 125.933 149.754 126.156 149.754C126.392 149.754 126.6 149.703 126.781 149.6C126.968 149.498 127.116 149.359 127.225 149.184C127.333 149.003 127.388 148.794 127.388 148.559L127.578 148.677ZM128.284 150.415H127.388V147.291C127.388 147.038 127.309 146.839 127.152 146.694C126.995 146.549 126.772 146.476 126.482 146.476C126.174 146.476 125.927 146.555 125.74 146.712C125.553 146.863 125.42 147.053 125.341 147.282L124.526 147.038C124.605 146.778 124.732 146.552 124.907 146.359C125.082 146.16 125.305 146.006 125.577 145.897C125.854 145.788 126.177 145.734 126.546 145.734C126.884 145.734 127.182 145.788 127.442 145.897C127.701 146.006 127.907 146.178 128.058 146.413C128.208 146.642 128.284 146.944 128.284 147.319V150.415ZM129.598 150.415V145.816H130.504V150.415H129.598ZM133.365 147.337V150.415H132.468V147.518C132.468 147.18 132.384 146.923 132.215 146.748C132.046 146.567 131.835 146.476 131.581 146.476C131.388 146.476 131.207 146.528 131.038 146.63C130.875 146.733 130.745 146.896 130.648 147.119C130.552 147.337 130.504 147.629 130.504 147.998L130.395 147.21C130.419 146.914 130.495 146.658 130.621 146.44C130.754 146.217 130.929 146.045 131.146 145.924C131.364 145.797 131.611 145.734 131.889 145.734C132.336 145.734 132.692 145.873 132.957 146.151C133.229 146.428 133.365 146.824 133.365 147.337ZM134.402 148.115C134.402 147.638 134.493 147.222 134.674 146.866C134.855 146.504 135.102 146.223 135.416 146.024C135.73 145.825 136.083 145.725 136.475 145.725C136.94 145.725 137.348 145.855 137.698 146.114C138.054 146.368 138.298 146.769 138.431 147.319L137.589 147.5C137.511 147.198 137.378 146.959 137.191 146.784C137.01 146.603 136.777 146.513 136.494 146.513C136.276 146.513 136.074 146.576 135.887 146.703C135.706 146.824 135.561 147.005 135.452 147.246C135.344 147.481 135.289 147.771 135.289 148.115C135.289 148.459 135.344 148.752 135.452 148.994C135.561 149.235 135.706 149.419 135.887 149.546C136.074 149.667 136.276 149.727 136.494 149.727C136.783 149.727 137.022 149.636 137.209 149.455C137.396 149.274 137.526 149.033 137.598 148.731L138.413 148.912C138.286 149.443 138.048 149.842 137.698 150.107C137.348 150.373 136.94 150.506 136.475 150.506C136.083 150.506 135.73 150.409 135.416 150.216C135.102 150.017 134.855 149.739 134.674 149.383C134.493 149.021 134.402 148.598 134.402 148.115ZM142.41 147.853C142.41 147.563 142.355 147.319 142.247 147.119C142.144 146.914 142.005 146.76 141.83 146.658C141.655 146.555 141.459 146.504 141.242 146.504C141.024 146.504 140.822 146.564 140.635 146.685C140.454 146.805 140.309 146.987 140.2 147.228C140.092 147.463 140.038 147.759 140.038 148.115C140.038 148.447 140.095 148.734 140.21 148.975C140.33 149.217 140.487 149.404 140.68 149.537C140.88 149.664 141.097 149.727 141.332 149.727C141.598 149.727 141.827 149.658 142.02 149.519C142.22 149.374 142.358 149.226 142.437 149.075L143.188 149.446C142.995 149.766 142.745 150.023 142.437 150.216C142.129 150.409 141.761 150.506 141.332 150.506C140.916 150.506 140.542 150.406 140.21 150.207C139.884 150.002 139.624 149.721 139.431 149.365C139.244 149.003 139.15 148.586 139.15 148.115C139.15 147.644 139.241 147.231 139.422 146.875C139.609 146.513 139.865 146.232 140.191 146.033C140.517 145.828 140.886 145.725 141.296 145.725C141.688 145.725 142.035 145.825 142.337 146.024C142.645 146.217 142.887 146.486 143.062 146.83C143.243 147.174 143.333 147.572 143.333 148.025C143.333 148.079 143.333 148.133 143.333 148.188C143.333 148.242 143.327 148.296 143.315 148.351H139.621V147.599H142.772L142.41 147.853ZM144.347 150.415V144.077H145.252V150.415H144.347Z" fill="white"/>
<path d="M35.5056 107.951V99.5853H38.1827C40.6567 99.5853 42.1625 101.294 42.1625 103.768C42.1625 106.242 40.6567 107.951 38.1827 107.951H35.5056ZM38.1349 100.721H36.7605V106.816H38.1349C39.9037 106.816 40.8837 105.585 40.8837 103.768C40.8837 101.952 39.9157 100.721 38.1349 100.721ZM48.6914 106.672C48.1775 107.521 47.3767 108.071 46.2414 108.071C44.5801 108.071 43.3611 106.78 43.3611 104.916C43.3611 103.063 44.5562 101.76 46.1936 101.76C47.7353 101.76 48.8826 103.003 48.8826 104.796C48.8826 104.939 48.8826 105.083 48.8587 105.226H44.5443C44.6638 106.362 45.3809 107.043 46.2414 107.043C46.9345 107.043 47.4962 106.589 47.6994 106.182L48.6914 106.672ZM46.1218 102.788C45.4048 102.788 44.7953 103.278 44.5921 104.234H47.6397C47.5202 103.302 46.8867 102.788 46.1218 102.788ZM50.2202 107.951V99.5853H51.4153V107.951H50.2202ZM53.7592 100.9C53.3529 100.9 53.0182 100.565 53.0182 100.159C53.0182 99.7645 53.3529 99.4299 53.7592 99.4299C54.1655 99.4299 54.5002 99.7645 54.5002 100.159C54.5002 100.565 54.1655 100.9 53.7592 100.9ZM53.1497 107.951V101.88H54.3448V107.951H53.1497ZM55.4577 101.88H56.7604L58.3499 106.708L59.9275 101.88H61.1584L59.0192 107.951H57.597L55.4577 101.88ZM67.0852 106.672C66.5713 107.521 65.7705 108.071 64.6352 108.071C62.9739 108.071 61.7549 106.78 61.7549 104.916C61.7549 103.063 62.95 101.76 64.5873 101.76C66.1291 101.76 67.2764 103.003 67.2764 104.796C67.2764 104.939 67.2764 105.083 67.2525 105.226H62.9381C63.0576 106.362 63.7747 107.043 64.6352 107.043C65.3283 107.043 65.89 106.589 66.0932 106.182L67.0852 106.672ZM64.5156 102.788C63.7986 102.788 63.189 103.278 62.9859 104.234H66.0335C65.9139 103.302 65.2805 102.788 64.5156 102.788ZM68.614 107.951V101.88H69.8091V103.505C70.0482 102.43 70.6935 101.844 71.4823 101.844H71.9126V102.991H71.4584C70.4665 102.991 69.8091 103.804 69.8091 105.095V107.951H68.614ZM74.108 109.278C74.4426 109.278 74.6219 109.134 74.7533 108.74L74.8609 108.453L72.626 101.88H73.9167L75.4824 106.852L77.1077 101.88H78.3387L75.7811 109.194C75.5182 109.971 75.0163 110.389 74.096 110.389H73.3311V109.278H74.108ZM88.0637 105.477C88.0637 107.079 86.7491 108.071 84.9683 108.071C83.6537 108.071 82.3749 107.581 81.7176 106.517L82.6378 105.704C83.1278 106.529 84.0839 106.971 84.9683 106.971C86.1993 106.971 86.7969 106.35 86.7969 105.573C86.7969 103.481 82.112 105.202 82.112 101.916C82.112 100.374 83.3549 99.4658 84.8966 99.4658C86.1635 99.4658 87.2749 99.9199 87.992 100.948L87.0359 101.76C86.5339 101.043 85.7213 100.589 84.8847 100.589C83.9286 100.589 83.3788 101.127 83.3788 101.82C83.3788 103.924 88.0637 102.215 88.0637 105.477ZM94.6525 106.672C94.1386 107.521 93.3379 108.071 92.2025 108.071C90.5413 108.071 89.3222 106.78 89.3222 104.916C89.3222 103.063 90.5174 101.76 92.1547 101.76C93.6964 101.76 94.8437 103.003 94.8437 104.796C94.8437 104.939 94.8437 105.083 94.8198 105.226H90.5054C90.6249 106.362 91.342 107.043 92.2025 107.043C92.8957 107.043 93.4574 106.589 93.6606 106.182L94.6525 106.672ZM92.083 102.788C91.3659 102.788 90.7564 103.278 90.5532 104.234H93.6008C93.4813 103.302 92.8479 102.788 92.083 102.788ZM96.1814 107.951V101.88H97.3765V103.505C97.6155 102.43 98.2609 101.844 99.0497 101.844H99.4799V102.991H99.0258C98.0338 102.991 97.3765 103.804 97.3765 105.095V107.951H96.1814ZM100.193 101.88H101.496L103.086 106.708L104.663 101.88H105.894L103.755 107.951H102.333L100.193 101.88ZM107.598 100.9C107.192 100.9 106.857 100.565 106.857 100.159C106.857 99.7645 107.192 99.4299 107.598 99.4299C108.005 99.4299 108.339 99.7645 108.339 100.159C108.339 100.565 108.005 100.9 107.598 100.9ZM106.989 107.951V101.88H108.184V107.951H106.989ZM109.572 104.916C109.572 103.027 110.743 101.76 112.309 101.76C113.54 101.76 114.543 102.418 114.89 103.864L113.779 104.103C113.575 103.314 113.085 102.8 112.333 102.8C111.46 102.8 110.743 103.565 110.743 104.916C110.743 106.278 111.46 107.043 112.333 107.043C113.097 107.043 113.599 106.529 113.791 105.728L114.866 105.967C114.532 107.378 113.528 108.071 112.309 108.071C110.743 108.071 109.572 106.828 109.572 104.916ZM121.169 106.672C120.656 107.521 119.855 108.071 118.719 108.071C117.058 108.071 115.839 106.78 115.839 104.916C115.839 103.063 117.034 101.76 118.672 101.76C120.213 101.76 121.361 103.003 121.361 104.796C121.361 104.939 121.361 105.083 121.337 105.226H117.022C117.142 106.362 117.859 107.043 118.719 107.043C119.413 107.043 119.974 106.589 120.178 106.182L121.169 106.672ZM118.6 102.788C117.883 102.788 117.273 103.278 117.07 104.234H120.118C119.998 103.302 119.365 102.788 118.6 102.788Z" fill="#0D0031"/>
<path d="M35.5534 121.951V113.585H36.9278L39.2583 120.684L41.5769 113.585H42.9393V121.951H42.0908V114.338L39.5691 121.951H38.8759L36.3542 114.41V121.951H35.5534ZM47.1828 122.071C45.653 122.071 44.5177 120.816 44.5177 118.963C44.5177 117.123 45.653 115.856 47.1828 115.856C48.7126 115.856 49.8599 117.123 49.8599 118.963C49.8599 120.816 48.7126 122.071 47.1828 122.071ZM47.1828 121.354C48.2106 121.354 49.0472 120.469 49.0472 118.963C49.0472 117.457 48.2106 116.573 47.1828 116.573C46.1669 116.573 45.3184 117.457 45.3184 118.963C45.3184 120.469 46.1669 121.354 47.1828 121.354ZM51.3184 121.951V115.964H52.1311V117.302C52.4179 116.43 53.1111 115.868 53.9955 115.868C55.2026 115.868 55.9316 116.669 55.9316 117.936V121.951H55.1189V118.067C55.1189 117.111 54.5572 116.549 53.7684 116.549C52.884 116.549 52.1311 117.266 52.1311 118.724V121.951H51.3184ZM59.7123 121.246H60.6923V121.951H59.4136C58.804 121.951 58.4097 121.664 58.4097 121.007V116.681H57.0711V115.964H58.4097V114.255H59.2343V115.964H60.6923V116.681H59.2343V120.78C59.2343 121.127 59.3897 121.246 59.7123 121.246ZM61.9859 121.951V113.585H62.7986V117.302C63.0854 116.43 63.7786 115.868 64.663 115.868C65.8701 115.868 66.5991 116.669 66.5991 117.936V121.951H65.7864V118.067C65.7864 117.111 65.2247 116.549 64.4359 116.549C63.5515 116.549 62.7986 117.266 62.7986 118.724V121.951H61.9859ZM68.405 121.951V113.585H69.2177V121.951H68.405ZM71.5925 123.612C71.9869 123.612 72.202 123.421 72.3574 122.955L72.6084 122.274L70.3735 115.964H71.2579L73.0266 121.222L74.8193 115.964H75.6679L73.0506 123.302C72.8115 123.995 72.3813 124.365 71.5925 124.365H70.9471V123.612H71.5925Z" fill="#0D0031" fill-opacity="0.3"/>
<path d="M192.807 108.513V107.628C191.791 107.509 190.811 106.959 190.345 106.015L191.254 105.37C191.588 106.063 192.174 106.469 192.807 106.613V104.234C191.708 104.019 190.608 103.649 190.608 102.095C190.608 100.816 191.552 100.016 192.807 99.896V99.0355H193.668V99.9199C194.6 100.039 195.437 100.506 195.95 101.39L195.03 102.059C194.708 101.509 194.218 101.127 193.668 100.972V103.218C194.827 103.446 196.07 103.744 196.07 105.358C196.07 106.672 195.066 107.521 193.668 107.652V108.513H192.807ZM191.732 102.023C191.732 102.669 192.186 102.932 192.807 103.111V100.924C192.126 101.019 191.732 101.474 191.732 102.023ZM194.923 105.429C194.923 104.724 194.373 104.485 193.668 104.33V106.637C194.504 106.517 194.923 106.027 194.923 105.429ZM203.454 105.226C203.454 106.947 202.223 108.071 200.669 108.071C198.757 108.071 197.49 106.517 197.49 103.936C197.49 101.139 198.829 99.4658 200.86 99.4658C201.876 99.4658 202.689 99.8362 203.286 100.589L202.306 101.342C201.948 100.864 201.434 100.553 200.789 100.553C199.534 100.553 198.721 101.784 198.721 104.007C198.721 104.043 198.721 104.067 198.721 104.091C199.092 103.147 199.88 102.597 200.896 102.597C202.39 102.597 203.454 103.613 203.454 105.226ZM198.948 105.286C198.948 106.266 199.713 106.983 200.597 106.983C201.434 106.983 202.235 106.362 202.235 105.286C202.235 104.21 201.434 103.589 200.597 103.589C199.713 103.589 198.948 104.258 198.948 105.286ZM209.613 99.5853V104.856H210.617V105.943H209.613V107.951H208.43V105.943H204.558V104.892L208.382 99.5853H209.613ZM205.848 104.856H208.43V101.246L205.848 104.856ZM212.436 108.011C212.03 108.011 211.683 107.664 211.683 107.234C211.683 106.816 212.03 106.457 212.436 106.457C212.854 106.457 213.213 106.816 213.213 107.234C213.213 107.664 212.854 108.011 212.436 108.011ZM220.202 103.601C220.202 106.398 218.863 108.071 216.831 108.071C215.816 108.071 215.003 107.7 214.405 106.947L215.385 106.194C215.744 106.672 216.258 106.983 216.903 106.983C218.158 106.983 218.971 105.752 218.971 103.529C218.971 103.493 218.971 103.469 218.971 103.446C218.6 104.39 217.811 104.939 216.796 104.939C215.302 104.939 214.238 103.924 214.238 102.31C214.238 100.589 215.469 99.4658 217.023 99.4658C218.935 99.4658 220.202 101.019 220.202 103.601ZM218.744 102.25C218.744 101.27 217.979 100.553 217.094 100.553C216.258 100.553 215.457 101.175 215.457 102.25C215.457 103.326 216.258 103.947 217.094 103.947C217.979 103.947 218.744 103.278 218.744 102.25ZM227.391 103.601C227.391 106.398 226.053 108.071 224.021 108.071C223.005 108.071 222.192 107.7 221.595 106.947L222.575 106.194C222.933 106.672 223.447 106.983 224.093 106.983C225.347 106.983 226.16 105.752 226.16 103.529C226.16 103.493 226.16 103.469 226.16 103.446C225.79 104.39 225.001 104.939 223.985 104.939C222.491 104.939 221.427 103.924 221.427 102.31C221.427 100.589 222.658 99.4658 224.212 99.4658C226.124 99.4658 227.391 101.019 227.391 103.601ZM225.933 102.25C225.933 101.27 225.168 100.553 224.284 100.553C223.447 100.553 222.646 101.175 222.646 102.25C222.646 103.326 223.447 103.947 224.284 103.947C225.168 103.947 225.933 103.278 225.933 102.25Z" fill="#0D0031"/>
<g filter="url(#filter5_d_5809_34103)">
<path d="M179.748 150.093C178.428 149.493 177.07 150.851 177.67 152.172L185.168 168.668C185.744 169.935 187.562 169.881 188.062 168.582L190.06 163.385C190.22 162.971 190.547 162.643 190.962 162.484L196.158 160.485C197.457 159.986 197.512 158.168 196.244 157.592L179.748 150.093Z" fill="black"/>
<path d="M179.532 150.569C178.652 150.169 177.746 151.075 178.146 151.955L185.644 168.451C186.028 169.296 187.241 169.26 187.574 168.393L189.572 163.198C189.785 162.645 190.222 162.208 190.774 161.996L195.971 159.997C196.836 159.663 196.873 158.452 196.028 158.068L179.532 150.569Z" stroke="white" stroke-width="1.04636"/>
</g>
<defs>
<filter id="filter0_d_5809_34103" x="9.36437" y="-0.00037384" width="245.557" height="327.729" filterUnits="userSpaceOnUse" color-interpolation-filters="sRGB">
<feFlood flood-opacity="0" result="BackgroundImageFix"/>
<feColorMatrix in="SourceAlpha" type="matrix" values="0 0 0 0 0 0 0 0 0 0 0 0 0 0 0 0 0 0 127 0" result="hardAlpha"/>
<feOffset/>
<feGaussianBlur stdDeviation="10.9323"/>
<feComposite in2="hardAlpha" operator="out"/>
<feColorMatrix type="matrix" values="0 0 0 0 0 0 0 0 0 0 0 0 0 0 0 0 0 0 0.03 0"/>
<feBlend mode="normal" in2="BackgroundImageFix" result="effect1_dropShadow_5809_34103"/>
<feBlend mode="normal" in="SourceGraphic" in2="effect1_dropShadow_5809_34103" result="shape"/>
</filter>
<filter id="filter1_d_5809_34103" x="31.2307" y="130.152" width="201.827" height="75.685" filterUnits="userSpaceOnUse" color-interpolation-filters="sRGB">
<feFlood flood-opacity="0" result="BackgroundImageFix"/>
<feColorMatrix in="SourceAlpha" type="matrix" values="0 0 0 0 0 0 0 0 0 0 0 0 0 0 0 0 0 0 127 0" result="hardAlpha"/>
<feOffset/>
<feGaussianBlur stdDeviation="7.20812"/>
<feComposite in2="hardAlpha" operator="out"/>
<feColorMatrix type="matrix" values="0 0 0 0 0 0 0 0 0 0 0 0 0 0 0 0 0 0 0.05 0"/>
<feBlend mode="normal" in2="BackgroundImageFix" result="effect1_dropShadow_5809_34103"/>
<feBlend mode="normal" in="SourceGraphic" in2="effect1_dropShadow_5809_34103" result="shape"/>
</filter>
<filter id="filter2_d_5809_34103" x="31.2307" y="235.396" width="201.827" height="75.685" filterUnits="userSpaceOnUse" color-interpolation-filters="sRGB">
<feFlood flood-opacity="0" result="BackgroundImageFix"/>
<feColorMatrix in="SourceAlpha" type="matrix" values="0 0 0 0 0 0 0 0 0 0 0 0 0 0 0 0 0 0 127 0" result="hardAlpha"/>
<feOffset/>
<feGaussianBlur stdDeviation="7.20812"/>
<feComposite in2="hardAlpha" operator="out"/>
<feColorMatrix type="matrix" values="0 0 0 0 0 0 0 0 0 0 0 0 0 0 0 0 0 0 0.05 0"/>
<feBlend mode="normal" in2="BackgroundImageFix" result="effect1_dropShadow_5809_34103"/>
<feBlend mode="normal" in="SourceGraphic" in2="effect1_dropShadow_5809_34103" result="shape"/>
</filter>
<filter id="filter3_d_5809_34103" x="31.229" y="182.776" width="201.827" height="75.685" filterUnits="userSpaceOnUse" color-interpolation-filters="sRGB">
<feFlood flood-opacity="0" result="BackgroundImageFix"/>
<feColorMatrix in="SourceAlpha" type="matrix" values="0 0 0 0 0 0 0 0 0 0 0 0 0 0 0 0 0 0 127 0" result="hardAlpha"/>
<feOffset/>
<feGaussianBlur stdDeviation="7.20812"/>
<feComposite in2="hardAlpha" operator="out"/>
<feColorMatrix type="matrix" values="0 0 0 0 0 0 0 0 0 0 0 0 0 0 0 0 0 0 0.05 0"/>
<feBlend mode="normal" in2="BackgroundImageFix" result="effect1_dropShadow_5809_34103"/>
<feBlend mode="normal" in="SourceGraphic" in2="effect1_dropShadow_5809_34103" result="shape"/>
</filter>
<filter id="filter4_d_5809_34103" x="-0.539564" y="61.9097" width="265.365" height="132.891" filterUnits="userSpaceOnUse" color-interpolation-filters="sRGB">
<feFlood flood-opacity="0" result="BackgroundImageFix"/>
<feColorMatrix in="SourceAlpha" type="matrix" values="0 0 0 0 0 0 0 0 0 0 0 0 0 0 0 0 0 0 127 0" result="hardAlpha"/>
<feOffset/>
<feGaussianBlur stdDeviation="9.4773"/>
<feComposite in2="hardAlpha" operator="out"/>
<feColorMatrix type="matrix" values="0 0 0 0 0 0 0 0 0 0 0 0 0 0 0 0 0 0 0.08 0"/>
<feBlend mode="normal" in2="BackgroundImageFix" result="effect1_dropShadow_5809_34103"/>
<feBlend mode="normal" in="SourceGraphic" in2="effect1_dropShadow_5809_34103" result="shape"/>
</filter>
<filter id="filter5_d_5809_34103" x="176.03" y="148.454" width="25.6139" height="25.6139" filterUnits="userSpaceOnUse" color-interpolation-filters="sRGB">
<feFlood flood-opacity="0" result="BackgroundImageFix"/>
<feColorMatrix in="SourceAlpha" type="matrix" values="0 0 0 0 0 0 0 0 0 0 0 0 0 0 0 0 0 0 127 0" result="hardAlpha"/>
<feOffset dx="1.49332" dy="1.49332"/>
<feGaussianBlur stdDeviation="1.49332"/>
<feComposite in2="hardAlpha" operator="out"/>
<feColorMatrix type="matrix" values="0 0 0 0 0 0 0 0 0 0 0 0 0 0 0 0 0 0 0.2 0"/>
<feBlend mode="normal" in2="BackgroundImageFix" result="effect1_dropShadow_5809_34103"/>
<feBlend mode="normal" in="SourceGraphic" in2="effect1_dropShadow_5809_34103" result="shape"/>
</filter>
</defs>
</svg>
