<svg width="264" height="314" viewBox="0 0 264 314" fill="none" xmlns="http://www.w3.org/2000/svg">
<rect width="264" height="314" fill="#F0F4F6"/>
<rect x="35" y="81" width="194.942" height="153" rx="21.057" fill="white"/>
<g filter="url(#filter0_i_7141_3043)">
<path d="M63.5151 111.737C64.0793 112.301 64.9924 112.301 65.5544 111.737L72.8675 104.423L70.8282 102.383L63.5151 109.697C62.9509 110.261 62.9509 111.175 63.5151 111.737Z" fill="url(#paint0_linear_7141_3043)"/>
<path d="M63.5151 111.737C64.0793 112.301 64.9924 112.301 65.5544 111.737L72.8675 104.423L70.8282 102.383L63.5151 109.697C62.9509 110.261 62.9509 111.175 63.5151 111.737Z" fill="url(#paint1_linear_7141_3043)"/>
</g>
<g filter="url(#filter1_i_7141_3043)">
<path d="M63.0932 110.718C63.0932 111.515 63.7392 112.161 64.536 112.161H74.8725V109.277H64.536C63.7392 109.277 63.0932 109.923 63.0932 110.72V110.718Z" fill="url(#paint2_linear_7141_3043)"/>
<path d="M63.0932 110.718C63.0932 111.515 63.7392 112.161 64.536 112.161H74.8725V109.277H64.536C63.7392 109.277 63.0932 109.923 63.0932 110.72V110.718Z" fill="url(#paint3_linear_7141_3043)"/>
</g>
<g filter="url(#filter2_i_7141_3043)">
<path d="M63.5151 109.697C62.9509 110.262 62.9509 111.175 63.5151 111.737L70.8282 119.051L72.8675 117.011L65.5544 109.697C64.9902 109.133 64.0772 109.133 63.5151 109.697Z" fill="url(#paint4_linear_7141_3043)"/>
<path d="M63.5151 109.697C62.9509 110.262 62.9509 111.175 63.5151 111.737L70.8282 119.051L72.8675 117.011L65.5544 109.697C64.9902 109.133 64.0772 109.133 63.5151 109.697Z" fill="url(#paint5_linear_7141_3043)"/>
</g>
<g filter="url(#filter3_i_7141_3043)">
<path d="M64.536 109.275C63.7392 109.275 63.0932 109.921 63.0932 110.718V121.062H65.9766V110.718C65.9766 109.921 65.3306 109.275 64.5338 109.275H64.536Z" fill="url(#paint6_linear_7141_3043)"/>
</g>
<g filter="url(#filter4_i_7141_3043)">
<path d="M65.5527 109.697C64.9885 109.133 64.0755 109.133 63.5134 109.697L56.2004 117.011L58.2397 119.051L65.5527 111.737C66.1169 111.172 66.1169 110.259 65.5527 109.697Z" fill="url(#paint7_linear_7141_3043)"/>
<path d="M65.5527 109.697C64.9885 109.133 64.0755 109.133 63.5134 109.697L56.2004 117.011L58.2397 119.051L65.5527 111.737C66.1169 111.172 66.1169 110.259 65.5527 109.697Z" fill="url(#paint8_linear_7141_3043)"/>
</g>
<g filter="url(#filter5_i_7141_3043)">
<path d="M64.5356 105.125C65.8439 105.125 66.9044 104.064 66.9044 102.756C66.9044 101.447 65.8439 100.387 64.5356 100.387C63.2274 100.387 62.1669 101.447 62.1669 102.756C62.1669 104.064 63.2274 105.125 64.5356 105.125Z" fill="url(#paint9_linear_7141_3043)"/>
</g>
<g filter="url(#filter6_i_7141_3043)">
<path d="M65.9757 110.718C65.9757 109.921 65.3297 109.275 64.5329 109.275H54.1964V112.159H64.5329C65.3297 112.159 65.9757 111.513 65.9757 110.716V110.718Z" fill="url(#paint10_linear_7141_3043)"/>
<path d="M65.9757 110.718C65.9757 109.921 65.3297 109.275 64.5329 109.275H54.1964V112.159H64.5329C65.3297 112.159 65.9757 111.513 65.9757 110.716V110.718Z" fill="url(#paint11_linear_7141_3043)"/>
</g>
<g filter="url(#filter7_i_7141_3043)">
<path d="M65.5527 111.737C66.1169 111.172 66.1169 110.259 65.5527 109.697L58.2397 102.383L56.2004 104.423L63.5134 111.737C64.0776 112.301 64.9907 112.301 65.5527 111.737Z" fill="url(#paint12_linear_7141_3043)"/>
</g>
<path d="M54.7275 148.451H57.0137V138.579H54.7275V137.303H60.6998V138.579H58.4137V148.451H60.6998V149.709H54.7275V148.451ZM62.3714 139.962C62.7436 139.962 62.903 139.82 62.903 139.341V138.952H62.1764V137.303H63.6828V139.377C63.6828 140.228 63.222 140.635 62.4954 140.635H61.9815V139.962H62.3714ZM64.4768 141.025H65.9123L68.482 148.326L71.034 141.025H72.3809L69.2263 149.709H67.6314L64.4768 141.025ZM80.5027 147.352C80.0065 148.84 78.6241 149.886 76.9051 149.886C74.5658 149.886 72.829 148.025 72.829 145.367C72.829 142.726 74.5303 140.848 76.8342 140.848C79.0317 140.848 80.6444 142.62 80.6444 145.172C80.6444 145.331 80.6444 145.473 80.6267 145.633H74.1405C74.2468 147.547 75.4696 148.716 76.9051 148.716C78.1102 148.716 79.014 147.99 79.2976 147.05L80.5027 147.352ZM76.7633 142.017C75.5228 142.017 74.4772 142.904 74.2114 144.516H79.2976C79.1204 142.921 78.0393 142.017 76.7633 142.017ZM89.0778 147.547C88.7942 147.547 88.5107 147.511 88.2448 147.458H88.0853C87.5005 147.458 87.0043 147.759 87.0043 148.238C87.0043 148.645 87.3233 148.911 87.8372 148.911H91.1512C92.6576 148.911 93.5792 149.744 93.5792 150.967C93.5792 152.261 92.569 153.218 90.9917 153.218H87.2347C85.8346 153.218 84.9485 152.456 84.9485 151.463C84.9485 150.613 85.622 149.992 86.5081 149.815C86.0827 149.549 85.8524 149.159 85.8524 148.681C85.8524 147.866 86.4372 147.316 87.341 147.121C86.3309 146.572 85.6751 145.526 85.6751 144.197C85.6751 142.23 87.1461 140.848 89.0778 140.848C90.3715 140.848 91.4525 141.468 92.0373 142.478V142.195C92.0373 141.433 92.3918 140.972 93.0652 140.972H93.9336V142.266H93.0298C92.6044 142.266 92.3918 142.443 92.3918 143.028V143.382C92.4449 143.648 92.4804 143.914 92.4804 144.197C92.4804 146.182 91.0095 147.547 89.0778 147.547ZM89.0778 146.483C90.2651 146.483 91.2044 145.597 91.2044 144.197C91.2044 142.815 90.2651 141.947 89.0778 141.947C87.8904 141.947 86.9511 142.815 86.9511 144.197C86.9511 145.597 87.8904 146.483 89.0778 146.483ZM92.3209 151.073C92.3209 150.453 91.8424 150.081 91.1335 150.081H87.3587C86.7207 150.081 86.1182 150.506 86.1182 151.127C86.1182 151.747 86.6144 152.137 87.3942 152.137H91.0626C91.807 152.137 92.3209 151.711 92.3209 151.073ZM101.911 147.352C101.415 148.84 100.032 149.886 98.3134 149.886C95.9741 149.886 94.2374 148.025 94.2374 145.367C94.2374 142.726 95.9387 140.848 98.2425 140.848C100.44 140.848 102.053 142.62 102.053 145.172C102.053 145.331 102.053 145.473 102.035 145.633H95.5488C95.6551 147.547 96.8779 148.716 98.3134 148.716C99.5185 148.716 100.422 147.99 100.706 147.05L101.911 147.352ZM98.1717 142.017C96.9311 142.017 95.8855 142.904 95.6197 144.516H100.706C100.529 142.921 99.4476 142.017 98.1717 142.017ZM103.613 149.709V141.025H104.924V142.886C105.332 141.645 106.342 140.866 107.653 140.866C109.408 140.866 110.489 142.017 110.489 143.878V149.709H109.177V144.109C109.177 142.744 108.38 141.982 107.246 141.982C106.005 141.982 104.924 142.957 104.924 145.066V149.709H103.613ZM119.754 147.352C119.258 148.84 117.876 149.886 116.157 149.886C113.817 149.886 112.081 148.025 112.081 145.367C112.081 142.726 113.782 140.848 116.086 140.848C118.283 140.848 119.896 142.62 119.896 145.172C119.896 145.331 119.896 145.473 119.878 145.633H113.392C113.498 147.547 114.721 148.716 116.157 148.716C117.362 148.716 118.266 147.99 118.549 147.05L119.754 147.352ZM116.015 142.017C114.774 142.017 113.729 142.904 113.463 144.516H118.549C118.372 142.921 117.291 142.017 116.015 142.017ZM121.456 149.709V141.025H122.767V143.417C123.122 141.876 124.079 140.972 125.248 140.972H125.833V142.266H125.248C123.76 142.266 122.767 143.577 122.767 145.456V149.709H121.456ZM131.941 143.701C131.941 142.602 131.268 141.982 130.045 141.982C128.787 141.982 127.972 142.691 127.724 143.807L126.465 143.577C126.784 141.982 128.149 140.866 130.116 140.866C131.977 140.866 133.253 141.769 133.253 143.736V148.132C133.253 148.451 133.395 148.575 133.696 148.575H134.245V149.709H133.182C132.296 149.709 131.941 149.266 131.941 148.468V148.043C131.427 149.142 130.382 149.851 129.088 149.851C127.387 149.851 126.377 148.823 126.377 147.423C126.377 146.058 127.227 145.261 129.088 144.8L131.941 144.055V143.701ZM127.688 147.352C127.688 148.202 128.362 148.752 129.372 148.752C130.843 148.752 131.941 147.724 131.941 146.235V145.048L129.301 145.792C128.184 146.094 127.688 146.625 127.688 147.352ZM138.21 148.557H139.468V149.709H137.696C136.792 149.709 136.189 149.266 136.189 148.273V142.195H134.417V141.025H136.189V138.562H137.519V141.025H139.468V142.195H137.519V147.901C137.519 148.38 137.749 148.557 138.21 148.557ZM147.877 147.352C147.381 148.84 145.999 149.886 144.28 149.886C141.941 149.886 140.204 148.025 140.204 145.367C140.204 142.726 141.905 140.848 144.209 140.848C146.407 140.848 148.019 142.62 148.019 145.172C148.019 145.331 148.019 145.473 148.002 145.633H141.515C141.622 147.547 142.844 148.716 144.28 148.716C145.485 148.716 146.389 147.99 146.672 147.05L147.877 147.352ZM144.138 142.017C142.898 142.017 141.852 142.904 141.586 144.516H146.672C146.495 142.921 145.414 142.017 144.138 142.017ZM152.784 149.851C150.728 149.851 149.186 148.061 149.186 145.402C149.186 142.691 150.763 140.866 152.854 140.866C154.148 140.866 155.211 141.61 155.832 142.815V137.303H157.161V149.709H155.832V147.883C155.194 149.106 154.095 149.851 152.784 149.851ZM153.156 142.053C151.72 142.053 150.497 143.276 150.497 145.385C150.497 147.494 151.72 148.734 153.156 148.734C154.627 148.734 155.832 147.494 155.832 145.385C155.832 143.276 154.627 142.053 153.156 142.053ZM168.164 143.701C168.164 142.602 167.491 141.982 166.268 141.982C165.01 141.982 164.194 142.691 163.946 143.807L162.688 143.577C163.007 141.982 164.372 140.866 166.339 140.866C168.2 140.866 169.476 141.769 169.476 143.736V148.132C169.476 148.451 169.617 148.575 169.919 148.575H170.468V149.709H169.405C168.519 149.709 168.164 149.266 168.164 148.468V148.043C167.65 149.142 166.605 149.851 165.311 149.851C163.61 149.851 162.599 148.823 162.599 147.423C162.599 146.058 163.45 145.261 165.311 144.8L168.164 144.055V143.701ZM163.911 147.352C163.911 148.202 164.584 148.752 165.594 148.752C167.065 148.752 168.164 147.724 168.164 146.235V145.048L165.524 145.792C164.407 146.094 163.911 146.625 163.911 147.352ZM55.206 168.709V160.025H56.5174V162.417C56.8719 160.876 57.8289 159.972 58.9985 159.972H59.5834V161.266H58.9985C57.5099 161.266 56.5174 162.577 56.5174 164.456V168.709H55.206ZM67.765 166.352C67.2688 167.84 65.8864 168.886 64.1674 168.886C61.8281 168.886 60.0913 167.025 60.0913 164.367C60.0913 161.726 61.7927 159.848 64.0965 159.848C66.294 159.848 67.9067 161.62 67.9067 164.172C67.9067 164.331 67.9067 164.473 67.889 164.633H61.4028C61.5091 166.547 62.7319 167.716 64.1674 167.716C65.3725 167.716 66.2763 166.99 66.5599 166.05L67.765 166.352ZM64.0256 161.017C62.7851 161.017 61.7395 161.904 61.4737 163.516H66.5599C66.3827 161.921 65.3016 161.017 64.0256 161.017ZM69.4667 160.025H70.7781V161.868C71.3984 160.628 72.5149 159.866 73.844 159.866C75.8998 159.866 77.4239 161.673 77.4239 164.314C77.4239 167.025 75.8643 168.868 73.7731 168.868C72.4794 168.868 71.3984 168.106 70.7781 166.883V172.218H69.4667V160.025ZM73.4719 167.734C74.9074 167.734 76.1125 166.494 76.1125 164.385C76.1125 162.276 74.9074 161.053 73.4719 161.053C72.0009 161.053 70.7781 162.276 70.7781 164.385C70.7781 166.494 72.0009 167.734 73.4719 167.734ZM82.5788 168.886C80.3281 168.886 78.6268 167.061 78.6268 164.367C78.6268 161.673 80.3281 159.848 82.5788 159.848C84.8649 159.848 86.5662 161.673 86.5662 164.367C86.5662 167.061 84.8649 168.886 82.5788 168.886ZM82.5788 167.716C84.0497 167.716 85.2548 166.476 85.2548 164.367C85.2548 162.258 84.0497 161.017 82.5788 161.017C81.1433 161.017 79.9382 162.258 79.9382 164.367C79.9382 166.476 81.1433 167.716 82.5788 167.716ZM88.1579 168.709V160.025H89.4693V162.417C89.8238 160.876 90.7807 159.972 91.9504 159.972H92.5352V161.266H91.9504C90.4617 161.266 89.4693 162.577 89.4693 164.456V168.709H88.1579ZM96.916 167.557H98.1743V168.709H96.4021C95.4983 168.709 94.8957 168.266 94.8957 167.273V161.195H93.1235V160.025H94.8957V157.562H96.2249V160.025H98.1743V161.195H96.2249V166.901C96.2249 167.38 96.4552 167.557 96.916 167.557ZM106.791 168.886C104.54 168.886 102.839 167.061 102.839 164.367C102.839 161.673 104.54 159.848 106.791 159.848C109.077 159.848 110.778 161.673 110.778 164.367C110.778 167.061 109.077 168.886 106.791 168.886ZM106.791 167.716C108.262 167.716 109.467 166.476 109.467 164.367C109.467 162.258 108.262 161.017 106.791 161.017C105.355 161.017 104.15 162.258 104.15 164.367C104.15 166.476 105.355 167.716 106.791 167.716ZM116.45 161.195H114.501V168.709H113.172V161.195H111.399V160.025H113.172V158.253C113.172 157.03 113.685 156.303 115.015 156.303H116.45V157.473H115.245C114.731 157.473 114.501 157.703 114.501 158.377V160.025H116.45V161.195ZM125.067 168.886C122.816 168.886 121.115 167.061 121.115 164.367C121.115 161.673 122.816 159.848 125.067 159.848C127.353 159.848 129.054 161.673 129.054 164.367C129.054 167.061 127.353 168.886 125.067 168.886ZM125.067 167.716C126.538 167.716 127.743 166.476 127.743 164.367C127.743 162.258 126.538 161.017 125.067 161.017C123.631 161.017 122.426 162.258 122.426 164.367C122.426 166.476 123.631 167.716 125.067 167.716ZM130.646 165.856V160.025H131.957V165.607C131.957 166.99 132.772 167.752 133.907 167.752C135.129 167.752 136.21 166.777 136.21 164.686V160.025H137.522V168.709H136.21V166.919C135.767 168.106 134.775 168.868 133.499 168.868C131.744 168.868 130.646 167.716 130.646 165.856ZM142.64 167.557H143.898V168.709H142.126C141.222 168.709 140.62 168.266 140.62 167.273V161.195H138.848V160.025H140.62V157.562H141.949V160.025H143.898V161.195H141.949V166.901C141.949 167.38 142.179 167.557 142.64 167.557ZM151.522 166.139C151.522 167.805 150.033 168.886 148.137 168.886C146.684 168.886 145.16 168.159 144.469 166.83L145.479 166.05C146.081 167.185 147.109 167.752 148.172 167.752C149.466 167.752 150.246 167.114 150.246 166.263C150.246 164.012 144.894 165.909 144.894 162.471C144.894 160.858 146.241 159.866 148.031 159.866C149.378 159.866 150.707 160.486 151.345 161.726L150.264 162.382C149.75 161.443 148.846 160.982 147.942 160.982C146.826 160.982 146.152 161.602 146.152 162.347C146.152 164.491 151.522 162.807 151.522 166.139ZM155.914 167.557H157.173V168.709H155.4C154.497 168.709 153.894 168.266 153.894 167.273V161.195H152.122V160.025H153.894V157.562H155.223V160.025H157.173V161.195H155.223V166.901C155.223 167.38 155.454 167.557 155.914 167.557ZM163.63 162.701C163.63 161.602 162.956 160.982 161.734 160.982C160.475 160.982 159.66 161.691 159.412 162.807L158.154 162.577C158.473 160.982 159.837 159.866 161.804 159.866C163.665 159.866 164.941 160.769 164.941 162.736V167.132C164.941 167.451 165.083 167.575 165.384 167.575H165.934V168.709H164.87C163.984 168.709 163.63 168.266 163.63 167.468V167.043C163.116 168.142 162.07 168.851 160.777 168.851C159.075 168.851 158.065 167.823 158.065 166.423C158.065 165.058 158.916 164.261 160.777 163.8L163.63 163.055V162.701ZM159.377 166.352C159.377 167.202 160.05 167.752 161.06 167.752C162.531 167.752 163.63 166.724 163.63 165.235V164.048L160.989 164.792C159.873 165.094 159.377 165.625 159.377 166.352ZM167.249 168.709V160.025H168.561V161.886C168.968 160.645 169.978 159.866 171.29 159.866C173.044 159.866 174.125 161.017 174.125 162.878V168.709H172.814V163.109C172.814 161.744 172.016 160.982 170.882 160.982C169.642 160.982 168.561 161.957 168.561 164.066V168.709H167.249ZM179.315 168.851C177.259 168.851 175.717 167.061 175.717 164.402C175.717 161.691 177.294 159.866 179.386 159.866C180.679 159.866 181.743 160.61 182.363 161.815V156.303H183.692V168.709H182.363V166.883C181.725 168.106 180.626 168.851 179.315 168.851ZM179.687 161.053C178.251 161.053 177.028 162.276 177.028 164.385C177.028 166.494 178.251 167.734 179.687 167.734C181.158 167.734 182.363 166.494 182.363 164.385C182.363 162.276 181.158 161.053 179.687 161.053ZM187.024 158.82C186.528 158.82 186.138 158.412 186.138 157.934C186.138 157.455 186.528 157.03 187.024 157.03C187.521 157.03 187.911 157.455 187.911 157.934C187.911 158.412 187.521 158.82 187.024 158.82ZM186.351 168.709V161.195H184.862V160.025H187.68V168.709H186.351ZM189.8 168.709V160.025H191.111V161.886C191.519 160.645 192.529 159.866 193.84 159.866C195.595 159.866 196.676 161.017 196.676 162.878V168.709H195.365V163.109C195.365 161.744 194.567 160.982 193.433 160.982C192.192 160.982 191.111 161.957 191.111 164.066V168.709H189.8ZM201.865 166.547C201.582 166.547 201.298 166.511 201.032 166.458H200.873C200.288 166.458 199.792 166.759 199.792 167.238C199.792 167.645 200.111 167.911 200.625 167.911H203.939C205.445 167.911 206.367 168.744 206.367 169.967C206.367 171.261 205.356 172.218 203.779 172.218H200.022C198.622 172.218 197.736 171.456 197.736 170.463C197.736 169.613 198.409 168.992 199.296 168.815C198.87 168.549 198.64 168.159 198.64 167.681C198.64 166.866 199.225 166.316 200.128 166.121C199.118 165.572 198.463 164.526 198.463 163.197C198.463 161.23 199.934 159.848 201.865 159.848C203.159 159.848 204.24 160.468 204.825 161.478V161.195C204.825 160.433 205.179 159.972 205.853 159.972H206.721V161.266H205.817C205.392 161.266 205.179 161.443 205.179 162.028V162.382C205.232 162.648 205.268 162.914 205.268 163.197C205.268 165.182 203.797 166.547 201.865 166.547ZM201.865 165.483C203.053 165.483 203.992 164.597 203.992 163.197C203.992 161.815 203.053 160.947 201.865 160.947C200.678 160.947 199.739 161.815 199.739 163.197C199.739 164.597 200.678 165.483 201.865 165.483ZM205.108 170.073C205.108 169.453 204.63 169.081 203.921 169.081H200.146C199.508 169.081 198.906 169.506 198.906 170.127C198.906 170.747 199.402 171.137 200.182 171.137H203.85C204.594 171.137 205.108 170.711 205.108 170.073ZM56.4111 177.82C55.9149 177.82 55.525 177.412 55.525 176.934C55.525 176.455 55.9149 176.03 56.4111 176.03C56.9073 176.03 57.2972 176.455 57.2972 176.934C57.2972 177.412 56.9073 177.82 56.4111 177.82ZM55.7377 187.709V180.195H54.249V179.025H57.0668V187.709H55.7377ZM59.1866 187.709V179.025H60.498V180.886C60.9056 179.645 61.9157 178.866 63.2272 178.866C64.9816 178.866 66.0627 180.017 66.0627 181.878V187.709H64.7513V182.109C64.7513 180.744 63.9538 179.982 62.8196 179.982C61.579 179.982 60.498 180.957 60.498 183.066V187.709H59.1866ZM67.0382 179.025H68.4737L71.0434 186.326L73.5954 179.025H74.9422L71.7877 187.709H70.1927L67.0382 179.025ZM79.3424 187.886C77.0917 187.886 75.3904 186.061 75.3904 183.367C75.3904 180.673 77.0917 178.848 79.3424 178.848C81.6286 178.848 83.3299 180.673 83.3299 183.367C83.3299 186.061 81.6286 187.886 79.3424 187.886ZM79.3424 186.716C80.8134 186.716 82.0185 185.476 82.0185 183.367C82.0185 181.258 80.8134 180.017 79.3424 180.017C77.9069 180.017 76.7018 181.258 76.7018 183.367C76.7018 185.476 77.9069 186.716 79.3424 186.716ZM86.0401 177.82C85.5439 177.82 85.154 177.412 85.154 176.934C85.154 176.455 85.5439 176.03 86.0401 176.03C86.5363 176.03 86.9262 176.455 86.9262 176.934C86.9262 177.412 86.5363 177.82 86.0401 177.82ZM85.3667 187.709V180.195H83.878V179.025H86.6958V187.709H85.3667ZM88.2839 183.367C88.2839 180.673 89.9497 178.848 92.165 178.848C93.9372 178.848 95.3727 179.858 95.8334 181.843L94.5929 182.126C94.2739 180.833 93.4055 180.017 92.2004 180.017C90.765 180.017 89.5953 181.258 89.5953 183.367C89.5953 185.476 90.765 186.716 92.2004 186.716C93.4055 186.716 94.3094 185.901 94.6106 184.625L95.798 184.891C95.355 186.823 93.9372 187.886 92.165 187.886C89.9497 187.886 88.2839 186.061 88.2839 183.367ZM104.472 185.352C103.976 186.84 102.594 187.886 100.875 187.886C98.5355 187.886 96.7987 186.025 96.7987 183.367C96.7987 180.726 98.5001 178.848 100.804 178.848C103.001 178.848 104.614 180.62 104.614 183.172C104.614 183.331 104.614 183.473 104.596 183.633H98.1102C98.2165 185.547 99.4393 186.716 100.875 186.716C102.08 186.716 102.984 185.99 103.267 185.05L104.472 185.352ZM100.733 180.017C99.4925 180.017 98.4469 180.904 98.1811 182.516H103.267C103.09 180.921 102.009 180.017 100.733 180.017ZM112.444 185.139C112.444 186.805 110.955 187.886 109.059 187.886C107.605 187.886 106.081 187.159 105.39 185.83L106.4 185.05C107.003 186.185 108.031 186.752 109.094 186.752C110.388 186.752 111.168 186.114 111.168 185.263C111.168 183.012 105.816 184.909 105.816 181.471C105.816 179.858 107.162 178.866 108.952 178.866C110.299 178.866 111.628 179.486 112.266 180.726L111.185 181.382C110.671 180.443 109.768 179.982 108.864 179.982C107.747 179.982 107.074 180.602 107.074 181.347C107.074 183.491 112.444 181.807 112.444 185.139ZM120.817 186.557H122.075V187.709H120.303C119.399 187.709 118.796 187.266 118.796 186.273V180.195H117.024V179.025H118.796V176.562H120.125V179.025H122.075V180.195H120.125V185.901C120.125 186.38 120.356 186.557 120.817 186.557ZM123.463 187.709V175.303H124.775V180.886C125.182 179.645 126.193 178.866 127.504 178.866C129.259 178.866 130.34 180.017 130.34 181.878V187.709H129.028V182.109C129.028 180.744 128.231 179.982 127.096 179.982C125.856 179.982 124.775 180.957 124.775 183.066V187.709H123.463ZM133.581 177.82C133.085 177.82 132.695 177.412 132.695 176.934C132.695 176.455 133.085 176.03 133.581 176.03C134.078 176.03 134.468 176.455 134.468 176.934C134.468 177.412 134.078 177.82 133.581 177.82ZM132.908 187.709V180.195H131.419V179.025H134.237V187.709H132.908ZM142.453 185.139C142.453 186.805 140.965 187.886 139.068 187.886C137.615 187.886 136.091 187.159 135.4 185.83L136.41 185.05C137.013 186.185 138.04 186.752 139.104 186.752C140.398 186.752 141.177 186.114 141.177 185.263C141.177 183.012 135.825 184.909 135.825 181.471C135.825 179.858 137.172 178.866 138.962 178.866C140.309 178.866 141.638 179.486 142.276 180.726L141.195 181.382C140.681 180.443 139.777 179.982 138.873 179.982C137.757 179.982 137.084 180.602 137.084 181.347C137.084 183.491 142.453 181.807 142.453 185.139ZM150.897 187.868C148.841 187.868 147.3 186.061 147.3 183.402C147.3 180.709 148.877 178.866 150.95 178.866C152.226 178.866 153.307 179.592 153.928 180.797V179.025H155.257V191.218H153.928V185.919C153.29 187.124 152.191 187.868 150.897 187.868ZM151.252 180.053C149.798 180.053 148.611 181.276 148.611 183.385C148.611 185.494 149.798 186.734 151.252 186.734C152.705 186.734 153.928 185.494 153.928 183.385C153.928 181.276 152.705 180.053 151.252 180.053ZM157.384 184.856V179.025H158.696V184.607C158.696 185.99 159.511 186.752 160.645 186.752C161.868 186.752 162.949 185.777 162.949 183.686V179.025H164.261V187.709H162.949V185.919C162.506 187.106 161.514 187.868 160.238 187.868C158.483 187.868 157.384 186.716 157.384 184.856ZM171.452 181.701C171.452 180.602 170.779 179.982 169.556 179.982C168.298 179.982 167.483 180.691 167.235 181.807L165.976 181.577C166.295 179.982 167.66 178.866 169.627 178.866C171.488 178.866 172.764 179.769 172.764 181.736V186.132C172.764 186.451 172.906 186.575 173.207 186.575H173.756V187.709H172.693C171.807 187.709 171.452 187.266 171.452 186.468V186.043C170.938 187.142 169.893 187.851 168.599 187.851C166.898 187.851 165.888 186.823 165.888 185.423C165.888 184.058 166.738 183.261 168.599 182.8L171.452 182.055V181.701ZM167.199 185.352C167.199 186.202 167.873 186.752 168.883 186.752C170.354 186.752 171.452 185.724 171.452 184.235V183.048L168.812 183.792C167.695 184.094 167.199 184.625 167.199 185.352ZM175.072 187.709V179.025H176.383V181.417C176.738 179.876 177.695 178.972 178.864 178.972H179.449V180.266H178.864C177.376 180.266 176.383 181.577 176.383 183.456V187.709H175.072ZM183.83 186.557H185.088V187.709H183.316C182.412 187.709 181.81 187.266 181.81 186.273V180.195H180.038V179.025H181.81V176.562H183.139V179.025H185.088V180.195H183.139V185.901C183.139 186.38 183.369 186.557 183.83 186.557ZM193.498 185.352C193.002 186.84 191.619 187.886 189.9 187.886C187.561 187.886 185.824 186.025 185.824 183.367C185.824 180.726 187.525 178.848 189.829 178.848C192.027 178.848 193.64 180.62 193.64 183.172C193.64 183.331 193.64 183.473 193.622 183.633H187.136C187.242 185.547 188.465 186.716 189.9 186.716C191.105 186.716 192.009 185.99 192.293 185.05L193.498 185.352ZM189.758 180.017C188.518 180.017 187.472 180.904 187.206 182.516H192.293C192.115 180.921 191.034 180.017 189.758 180.017ZM195.2 187.709V179.025H196.511V181.417C196.865 179.876 197.822 178.972 198.992 178.972H199.577V180.266H198.992C197.503 180.266 196.511 181.577 196.511 183.456V187.709H195.2Z" fill="#0D0031"/>
<path d="M73.0387 205.07L70.8103 211.437H70.0554L67.8271 205.07H68.5274L70.4556 210.673L72.3838 205.07H73.0387ZM74.2327 205.998C73.9962 205.998 73.7961 205.798 73.7961 205.561C73.7961 205.334 73.9962 205.134 74.2327 205.134C74.4692 205.134 74.6693 205.334 74.6693 205.561C74.6693 205.798 74.4692 205.998 74.2327 205.998ZM73.9144 211.437V206.88H74.5329V211.437H73.9144ZM79.5235 210.536C79.1506 211.137 78.5503 211.528 77.7408 211.528C76.5402 211.528 75.658 210.554 75.658 209.163C75.658 207.771 76.522 206.798 77.7044 206.798C78.8322 206.798 79.6599 207.717 79.6599 209.063C79.6599 209.127 79.6599 209.199 79.6508 209.263H76.2674C76.3128 210.327 76.9677 210.982 77.7408 210.982C78.3047 210.982 78.814 210.636 79.005 210.245L79.5235 210.536ZM77.6771 207.344C77.0041 207.344 76.4311 207.844 76.2946 208.735H79.0232C78.9414 207.844 78.3684 207.344 77.6771 207.344ZM80.3627 206.88H80.9721L81.7634 210.618L82.7729 206.88H83.3823L84.4101 210.636L85.1923 206.88H85.7562L84.7375 211.437H84.0918L83.064 207.68L82.0362 211.437H81.3905L80.3627 206.88ZM88.9518 211.437V206.88H89.5702V208.162C89.7521 207.353 90.2615 206.862 90.8618 206.862H91.1619V207.462H90.8708C90.0887 207.462 89.5702 208.19 89.5702 209.163V211.437H88.9518ZM95.5734 210.536C95.2005 211.137 94.6002 211.528 93.7907 211.528C92.5901 211.528 91.7079 210.554 91.7079 209.163C91.7079 207.771 92.5719 206.798 93.7543 206.798C94.8821 206.798 95.7098 207.717 95.7098 209.063C95.7098 209.127 95.7098 209.199 95.7007 209.263H92.3173C92.3628 210.327 93.0176 210.982 93.7907 210.982C94.3546 210.982 94.8639 210.636 95.0549 210.245L95.5734 210.536ZM93.727 207.344C93.054 207.344 92.481 207.844 92.3446 208.735H95.0731C94.9913 207.844 94.4183 207.344 93.727 207.344ZM96.7946 206.88H97.4131V207.899C97.7314 207.217 98.3226 206.798 99.023 206.798C100.087 206.798 100.887 207.753 100.887 209.145C100.887 210.554 100.069 211.519 98.9866 211.519C98.3044 211.519 97.7314 211.1 97.4131 210.427V213.274H96.7946V206.88ZM98.8502 210.982C99.6142 210.982 100.26 210.309 100.26 209.172C100.26 208.026 99.6142 207.353 98.8502 207.353C98.068 207.353 97.4131 208.026 97.4131 209.172C97.4131 210.309 98.068 210.982 98.8502 210.982ZM103.817 211.528C102.653 211.528 101.789 210.573 101.789 209.163C101.789 207.762 102.653 206.798 103.817 206.798C104.981 206.798 105.855 207.762 105.855 209.163C105.855 210.573 104.981 211.528 103.817 211.528ZM103.817 210.982C104.599 210.982 105.236 210.309 105.236 209.163C105.236 208.017 104.599 207.344 103.817 207.344C103.044 207.344 102.398 208.017 102.398 209.163C102.398 210.309 103.044 210.982 103.817 210.982ZM106.965 211.437V206.88H107.583V208.162C107.765 207.353 108.274 206.862 108.875 206.862H109.175V207.462H108.884C108.102 207.462 107.583 208.19 107.583 209.163V211.437H106.965ZM111.754 210.9H112.5V211.437H111.526C111.063 211.437 110.762 211.218 110.762 210.718V207.426H109.744V206.88H110.762V205.579H111.39V206.88H112.5V207.426H111.39V210.545C111.39 210.809 111.508 210.9 111.754 210.9Z" fill="#236CFF"/>
<line x1="68.2007" y1="215.174" x2="113.383" y2="215.174" stroke="#236CFF" stroke-width="0.764147" stroke-linecap="round" stroke-dasharray="0.04 1.53 0.04 1.53"/>
<path d="M115.984 211.8L115.596 211.415L119.569 207.439H116.39L116.397 206.906H120.486V211.002H119.947L119.953 207.827L115.984 211.8Z" fill="#236CFF"/>
<path d="M61.6995 207.27C61.4262 207.27 61.189 207.173 60.988 206.978C60.787 206.783 60.6867 206.545 60.6867 206.264C60.6867 205.982 60.7871 205.74 60.988 205.537C61.1888 205.334 61.426 205.232 61.6995 205.232C61.9889 205.232 62.232 205.334 62.429 205.537C62.6259 205.74 62.7244 205.982 62.7244 206.264C62.7244 206.545 62.6259 206.783 62.429 206.978C62.232 207.173 61.9889 207.27 61.6995 207.27Z" fill="#236CFF"/>
<path d="M62.204 208.825C61.6642 208.825 61.2587 208.825 60.9392 208.799C60.6196 208.773 60.3865 208.721 60.1861 208.619C59.8298 208.437 59.5401 208.148 59.3585 207.791C59.2564 207.591 59.2045 207.358 59.1784 207.038C59.1523 206.719 59.1523 206.313 59.1523 205.774V205.096H57.8723V205.774C57.8723 206.313 57.8723 206.719 57.8462 207.038C57.82 207.358 57.7681 207.591 57.666 207.791C57.4845 208.148 57.1947 208.437 56.8384 208.619C56.638 208.721 56.405 208.773 56.0854 208.799C55.7659 208.825 55.3604 208.825 54.8206 208.825H54.1427V210.105H54.8232C55.363 210.105 55.7659 210.105 56.0854 210.131C56.405 210.157 56.638 210.209 56.8384 210.312C57.1947 210.493 57.4845 210.783 57.666 211.139C57.7681 211.34 57.82 211.573 57.8462 211.892C57.8723 212.212 57.8723 212.617 57.8723 213.157V213.835H59.1523V213.154C59.1523 212.615 59.1523 212.212 59.1784 211.892C59.2045 211.573 59.2564 211.34 59.3585 211.139C59.5401 210.783 59.8298 210.493 60.1861 210.312C60.3865 210.209 60.6196 210.157 60.9392 210.131C61.2587 210.105 61.6642 210.105 62.204 210.105H62.8818V208.825H62.204Z" fill="#236CFF"/>
<defs>
<filter id="filter0_i_7141_3043" x="63.092" y="102.383" width="9.77551" height="9.85636" filterUnits="userSpaceOnUse" color-interpolation-filters="sRGB">
<feFlood flood-opacity="0" result="BackgroundImageFix"/>
<feBlend mode="normal" in="SourceGraphic" in2="BackgroundImageFix" result="shape"/>
<feColorMatrix in="SourceAlpha" type="matrix" values="0 0 0 0 0 0 0 0 0 0 0 0 0 0 0 0 0 0 127 0" result="hardAlpha"/>
<feOffset dy="0.0795"/>
<feGaussianBlur stdDeviation="0.159"/>
<feComposite in2="hardAlpha" operator="arithmetic" k2="-1" k3="1"/>
<feColorMatrix type="matrix" values="0 0 0 0 1 0 0 0 0 1 0 0 0 0 1 0 0 0 0.7 0"/>
<feBlend mode="normal" in2="shape" result="effect1_innerShadow_7141_3043"/>
</filter>
<filter id="filter1_i_7141_3043" x="63.0932" y="109.277" width="11.7792" height="2.96335" filterUnits="userSpaceOnUse" color-interpolation-filters="sRGB">
<feFlood flood-opacity="0" result="BackgroundImageFix"/>
<feBlend mode="normal" in="SourceGraphic" in2="BackgroundImageFix" result="shape"/>
<feColorMatrix in="SourceAlpha" type="matrix" values="0 0 0 0 0 0 0 0 0 0 0 0 0 0 0 0 0 0 127 0" result="hardAlpha"/>
<feOffset dy="0.0795"/>
<feGaussianBlur stdDeviation="0.159"/>
<feComposite in2="hardAlpha" operator="arithmetic" k2="-1" k3="1"/>
<feColorMatrix type="matrix" values="0 0 0 0 1 0 0 0 0 1 0 0 0 0 1 0 0 0 0.7 0"/>
<feBlend mode="normal" in2="shape" result="effect1_innerShadow_7141_3043"/>
</filter>
<filter id="filter2_i_7141_3043" x="63.092" y="109.274" width="9.77551" height="9.85639" filterUnits="userSpaceOnUse" color-interpolation-filters="sRGB">
<feFlood flood-opacity="0" result="BackgroundImageFix"/>
<feBlend mode="normal" in="SourceGraphic" in2="BackgroundImageFix" result="shape"/>
<feColorMatrix in="SourceAlpha" type="matrix" values="0 0 0 0 0 0 0 0 0 0 0 0 0 0 0 0 0 0 127 0" result="hardAlpha"/>
<feOffset dy="0.0795"/>
<feGaussianBlur stdDeviation="0.159"/>
<feComposite in2="hardAlpha" operator="arithmetic" k2="-1" k3="1"/>
<feColorMatrix type="matrix" values="0 0 0 0 1 0 0 0 0 1 0 0 0 0 1 0 0 0 0.7 0"/>
<feBlend mode="normal" in2="shape" result="effect1_innerShadow_7141_3043"/>
</filter>
<filter id="filter3_i_7141_3043" x="63.0932" y="109.275" width="2.88342" height="12.1054" filterUnits="userSpaceOnUse" color-interpolation-filters="sRGB">
<feFlood flood-opacity="0" result="BackgroundImageFix"/>
<feBlend mode="normal" in="SourceGraphic" in2="BackgroundImageFix" result="shape"/>
<feColorMatrix in="SourceAlpha" type="matrix" values="0 0 0 0 0 0 0 0 0 0 0 0 0 0 0 0 0 0 127 0" result="hardAlpha"/>
<feOffset dy="0.318"/>
<feGaussianBlur stdDeviation="0.318"/>
<feComposite in2="hardAlpha" operator="arithmetic" k2="-1" k3="1"/>
<feColorMatrix type="matrix" values="0 0 0 0 1 0 0 0 0 1 0 0 0 0 1 0 0 0 0.7 0"/>
<feBlend mode="normal" in2="shape" result="effect1_innerShadow_7141_3043"/>
</filter>
<filter id="filter4_i_7141_3043" x="56.2004" y="109.274" width="9.77551" height="9.85636" filterUnits="userSpaceOnUse" color-interpolation-filters="sRGB">
<feFlood flood-opacity="0" result="BackgroundImageFix"/>
<feBlend mode="normal" in="SourceGraphic" in2="BackgroundImageFix" result="shape"/>
<feColorMatrix in="SourceAlpha" type="matrix" values="0 0 0 0 0 0 0 0 0 0 0 0 0 0 0 0 0 0 127 0" result="hardAlpha"/>
<feOffset dy="0.0795"/>
<feGaussianBlur stdDeviation="0.159"/>
<feComposite in2="hardAlpha" operator="arithmetic" k2="-1" k3="1"/>
<feColorMatrix type="matrix" values="0 0 0 0 1 0 0 0 0 1 0 0 0 0 1 0 0 0 0.7 0"/>
<feBlend mode="normal" in2="shape" result="effect1_innerShadow_7141_3043"/>
</filter>
<filter id="filter5_i_7141_3043" x="62.1669" y="100.387" width="4.73755" height="5.05622" filterUnits="userSpaceOnUse" color-interpolation-filters="sRGB">
<feFlood flood-opacity="0" result="BackgroundImageFix"/>
<feBlend mode="normal" in="SourceGraphic" in2="BackgroundImageFix" result="shape"/>
<feColorMatrix in="SourceAlpha" type="matrix" values="0 0 0 0 0 0 0 0 0 0 0 0 0 0 0 0 0 0 127 0" result="hardAlpha"/>
<feOffset dy="0.318"/>
<feGaussianBlur stdDeviation="0.159"/>
<feComposite in2="hardAlpha" operator="arithmetic" k2="-1" k3="1"/>
<feColorMatrix type="matrix" values="0 0 0 0 1 0 0 0 0 1 0 0 0 0 1 0 0 0 0.5 0"/>
<feBlend mode="normal" in2="shape" result="effect1_innerShadow_7141_3043"/>
</filter>
<filter id="filter6_i_7141_3043" x="54.1964" y="109.275" width="11.7792" height="2.96335" filterUnits="userSpaceOnUse" color-interpolation-filters="sRGB">
<feFlood flood-opacity="0" result="BackgroundImageFix"/>
<feBlend mode="normal" in="SourceGraphic" in2="BackgroundImageFix" result="shape"/>
<feColorMatrix in="SourceAlpha" type="matrix" values="0 0 0 0 0 0 0 0 0 0 0 0 0 0 0 0 0 0 127 0" result="hardAlpha"/>
<feOffset dy="0.0795"/>
<feGaussianBlur stdDeviation="0.159"/>
<feComposite in2="hardAlpha" operator="arithmetic" k2="-1" k3="1"/>
<feColorMatrix type="matrix" values="0 0 0 0 1 0 0 0 0 1 0 0 0 0 1 0 0 0 0.7 0"/>
<feBlend mode="normal" in2="shape" result="effect1_innerShadow_7141_3043"/>
</filter>
<filter id="filter7_i_7141_3043" x="56.2004" y="102.383" width="9.77551" height="9.85636" filterUnits="userSpaceOnUse" color-interpolation-filters="sRGB">
<feFlood flood-opacity="0" result="BackgroundImageFix"/>
<feBlend mode="normal" in="SourceGraphic" in2="BackgroundImageFix" result="shape"/>
<feColorMatrix in="SourceAlpha" type="matrix" values="0 0 0 0 0 0 0 0 0 0 0 0 0 0 0 0 0 0 127 0" result="hardAlpha"/>
<feOffset dy="0.0795"/>
<feGaussianBlur stdDeviation="0.159"/>
<feComposite in2="hardAlpha" operator="arithmetic" k2="-1" k3="1"/>
<feColorMatrix type="matrix" values="0 0 0 0 1 0 0 0 0 1 0 0 0 0 1 0 0 0 0.7 0"/>
<feBlend mode="normal" in2="shape" result="effect1_innerShadow_7141_3043"/>
</filter>
<linearGradient id="paint0_linear_7141_3043" x1="68.0886" y1="110.566" x2="71.0886" y2="100.474" gradientUnits="userSpaceOnUse">
<stop offset="0.0294118" stop-color="#236CFF"/>
<stop offset="1" stop-color="#D6E8F8"/>
</linearGradient>
<linearGradient id="paint1_linear_7141_3043" x1="63.9971" y1="112.14" x2="67.6046" y2="107.821" gradientUnits="userSpaceOnUse">
<stop stop-color="#1C0265"/>
<stop offset="1" stop-color="#236CFF" stop-opacity="0"/>
</linearGradient>
<linearGradient id="paint2_linear_7141_3043" x1="66.7963" y1="110.566" x2="77.7801" y2="110.566" gradientUnits="userSpaceOnUse">
<stop offset="0.0294118" stop-color="#236CFF"/>
<stop offset="1" stop-color="#D6E8F8"/>
</linearGradient>
<linearGradient id="paint3_linear_7141_3043" x1="65.6656" y1="112.343" x2="68.0886" y2="110.566" gradientUnits="userSpaceOnUse">
<stop stop-color="#1C0265"/>
<stop offset="1" stop-color="#236CFF" stop-opacity="0"/>
</linearGradient>
<linearGradient id="paint4_linear_7141_3043" x1="64.5412" y1="113.478" x2="67.8795" y2="121.935" gradientUnits="userSpaceOnUse">
<stop offset="0.0721754" stop-color="#236CFF"/>
<stop offset="1" stop-color="#D6E8F8"/>
</linearGradient>
<linearGradient id="paint5_linear_7141_3043" x1="63.6849" y1="113.245" x2="67.604" y2="113.312" gradientUnits="userSpaceOnUse">
<stop stop-color="#1C0265"/>
<stop offset="1" stop-color="#236CFF" stop-opacity="0"/>
</linearGradient>
<linearGradient id="paint6_linear_7141_3043" x1="64.4686" y1="108.794" x2="64.5846" y2="124.177" gradientUnits="userSpaceOnUse">
<stop stop-color="#236CFF"/>
<stop offset="0.624118" stop-color="#1C0265"/>
</linearGradient>
<linearGradient id="paint7_linear_7141_3043" x1="63.4028" y1="111.859" x2="58.9209" y2="121.864" gradientUnits="userSpaceOnUse">
<stop offset="0.0896021" stop-color="#236CFF"/>
<stop offset="1" stop-color="#D6E8F8"/>
</linearGradient>
<linearGradient id="paint8_linear_7141_3043" x1="65.1486" y1="109.196" x2="62.3454" y2="116.125" gradientUnits="userSpaceOnUse">
<stop stop-color="#1C0265"/>
<stop offset="1" stop-color="#236CFF" stop-opacity="0"/>
</linearGradient>
<linearGradient id="paint9_linear_7141_3043" x1="64.5585" y1="99.0971" x2="64.7775" y2="107.801" gradientUnits="userSpaceOnUse">
<stop stop-color="#236CFF"/>
<stop offset="1" stop-color="#1C0265"/>
</linearGradient>
<linearGradient id="paint10_linear_7141_3043" x1="50.983" y1="110.672" x2="62.4342" y2="110.566" gradientUnits="userSpaceOnUse">
<stop stop-color="#D6E8F8"/>
<stop offset="0.94358" stop-color="#236CFF"/>
</linearGradient>
<linearGradient id="paint11_linear_7141_3043" x1="64.7204" y1="110.672" x2="60.7036" y2="110.672" gradientUnits="userSpaceOnUse">
<stop stop-color="#1C0265"/>
<stop offset="1" stop-color="#236CFF" stop-opacity="0"/>
</linearGradient>
<linearGradient id="paint12_linear_7141_3043" x1="66.9564" y1="113.151" x2="58.9509" y2="97.6884" gradientUnits="userSpaceOnUse">
<stop offset="0.0562004" stop-color="#236CFF"/>
<stop offset="1" stop-color="#D6E8F8"/>
</linearGradient>
</defs>
</svg>
