<svg width="24" height="24" viewBox="0 0 24 24" fill="none" xmlns="http://www.w3.org/2000/svg">
<g clip-path="url(#clip0_5145_31294)">
<path d="M12 24C18.6274 24 24 18.6274 24 12C24 5.37258 18.6274 0 12 0C5.37258 0 0 5.37258 0 12C0 18.6274 5.37258 24 12 24Z" fill="#D52B1E"/>
<path d="M5.35029 13.1838C6.61977 14.3206 7.93616 15.3808 9.33736 16.376C11.5912 12.0569 14.7166 8.33508 18.5052 5.41809C19.31 6.13809 19.9064 7.00967 20.371 8.00396C16.7909 10.8551 13.0592 14.9179 10.6727 21.093C8.80684 19.9661 6.08834 18.0334 4.08984 16.3101C4.48774 15.24 4.88563 14.179 5.34939 13.1847L5.35029 13.1838Z" fill="white"/>
</g>
<defs>
<clipPath id="clip0_5145_31294">
<rect width="24" height="24" fill="white"/>
</clipPath>
</defs>
</svg>
